<svg id="Layer_1" xmlns="http://www.w3.org/2000/svg" viewBox="0 0 32 32"><style>.st0{fill:#d9dadb}</style><path class="st0" d="M5.8 11c-.5 0-.9.2-1.2.5-.4.4-.6.8-.6 1.2v7.2c0 .5.2.9.5 1.2.3.3.8.5 1.2.5.5 0 .9-.2 1.2-.5.3-.3.5-.7.5-1.2v-7.2c0-.5-.2-.9-.5-1.2-.3-.3-.7-.5-1.1-.5zm2.4 11.5c0 .5.2.9.5 1.3.4.4.8.5 1.3.5h1.3v3.8c0 .5.2.9.5 1.2.3.3.7.5 1.2.5s.9-.2 1.2-.5.5-.7.5-1.2v-3.8H17v3.8c0 .5.2.9.5 1.2.3.3.8.5 1.2.5.5 0 .9-.2 1.2-.5.3-.3.5-.7.5-1.2v-3.8h1.3c.5 0 .9-.2 1.3-.5.4-.4.5-.8.5-1.3V11.3H8.2v11.2zM19.8 4.6L21 2.4c.1-.2.1-.3 0-.4-.1-.1-.3 0-.3.1l-1.2 2.2c-1.1-.5-2.2-.7-3.4-.7s-2.3.2-3.4.7l-1.2-2.2c-.2-.1-.4-.1-.5-.1-.1.1-.2.2-.1.3l1.2 2.2c-1.2.7-2.2 1.5-2.9 2.6s-1.1 2.3-1.1 3.6h15.7c0-1.3-.4-2.5-1.1-3.6-.7-1.1-1.6-1.9-2.9-2.5zm-6.9 3.2c-.1.1-.3.2-.5.2s-.3-.1-.5-.2c-.1-.1-.2-.3-.2-.5s.1-.3.2-.5c.1-.1.3-.2.5-.2s.3.1.5.2c.1.2.2.3.2.5s-.1.3-.2.5zm7.1 0c-.1.1-.3.2-.5.2s-.3-.1-.5-.2c-.1-.1-.2-.3-.2-.5s.1-.3.2-.5c.1-.1.3-.2.5-.2s.3.1.5.2c.1.1.2.3.2.5s0 .3-.2.5zm7.5 3.7c-.3-.3-.8-.5-1.2-.5-.5 0-.9.2-1.2.5-.3.3-.5.7-.5 1.2v7.2c0 .5.2.9.5 1.2.3.3.7.5 1.2.5s.9-.2 1.2-.5c.3-.3.5-.7.5-1.2v-7.2c0-.4-.2-.9-.5-1.2z"/></svg>