<svg id="Layer_1" xmlns="http://www.w3.org/2000/svg" viewBox="0 0 32 32"><style>.st0,.st1{fill:#fff}.st1{fill-rule:evenodd;clip-rule:evenodd}.st2{display:none;fill:#fb8c00}.st3{fill:#5eb500}.st4{fill:#0288d1}.st5{fill:#46a7bb}</style><path d="M24 16.9c0-3.5 3-5.2 3.2-5.3-1.7-2.4-4.4-2.7-5.4-2.8-2.3-.2-4.5 1.3-5.6 1.3-1.2 0-3-1.3-4.9-1.2-2.5 0-4.8 1.4-6.1 3.5-2.6 4.2-.6 10.6 1.9 14.1 1.2 1.7 2.7 3.6 4.7 3.5 1.9-.1 2.6-1.1 4.8-1.1 2.3 0 2.9 1.1 4.9 1.1 2 0 3.3-1.7 4.5-3.4 1.4-2 2-3.9 2-4 0-.1-3.9-1.5-4-5.7zM20.3 6.5c1-1.2 1.7-2.8 1.5-4.5-1.5.1-3.3.9-4.3 2.1-1 1-1.8 2.7-1.6 4.3 1.7.2 3.4-.7 4.4-1.9zm0 0" id="apple"/></svg>