<svg id="Layer_1" xmlns="http://www.w3.org/2000/svg" viewBox="0 0 32 32"><style>.st0{fill:#fff}.st1,.st2{fill:#3ab376}.st2,.st3{fill-rule:evenodd;clip-rule:evenodd}.st3{fill:#fff}.st4,.st5{fill:#fb8c00}.st5{display:none}.st6{fill:#5eb500}.st7{fill:#0288d1}.st8{fill:#46a7bb}</style><path class="st0" d="M29.1 6.2H28V5h-.4c-8 0-10.7 1.9-11.5 2.9-1-1-3.6-2.9-11.6-2.9h-.4v1.3H2v18.1h.9c9.9 0 11.9 2.3 12.2 2.7h1.8c.3-.4 2.4-2.7 12.1-2.7h1V6.2h-.9zM15.4 23.5c-1.2-.9-3.6-1.9-8.4-2.2V6.1c6.8.4 8.2 2.4 8.4 2.7v14.7zm1.2 0V8.8c.2-.4 1.7-2.3 8.4-2.7v15.2c-4.7.3-7.2 1.3-8.4 2.2z" id="books"/></svg>