<svg id="Layer_1" xmlns="http://www.w3.org/2000/svg" viewBox="0 0 120 35"><style>.st0{fill:#fff}.st1{fill:#565656}.st2{fill:url(#XMLID_19_)}.st3{fill:url(#XMLID_27_)}.st4{fill:url(#XMLID_28_)}.st5{fill:url(#XMLID_29_)}.st6{opacity:.2}.st6,.st7,.st8{enable-background:new}.st7{opacity:.12}.st8{opacity:.25;fill:#fff}</style><path class="st0" d="M115.6 35H4.4C2 35 0 33 0 30.6V4.4C0 2 2 0 4.4 0h111.1c2.4 0 4.4 2 4.4 4.4v26.2c.1 2.4-1.9 4.4-4.3 4.4z" id="XMLID_37_"/><g id="XMLID_92_"><g id="XMLID_93_"><path id="XMLID_94_" class="st1" d="M115.6.7c2.1 0 3.7 1.6 3.7 3.7v26.2c0 2-1.7 3.7-3.7 3.7H4.4c-2.1 0-3.7-1.6-3.7-3.7V4.4C.7 2.4 2.4.7 4.4.7h111.2m0-.7H4.4C2 0 0 2 0 4.4v26.2C0 33 2 35 4.4 35h111.1c2.4 0 4.4-2 4.4-4.4V4.4C120 2 118 0 115.6 0z"/></g></g><path class="st1" d="M42.2 8.5h-2.8v.8h1.9c-.1.4-.2.7-.4.9-.4.4-.9.6-1.4.6-.5 0-1-.2-1.4-.6-.4-.4-.6-.8-.6-1.4 0-.6.2-1.1.6-1.4.4-.4.8-.6 1.4-.6.6 0 1 .2 1.4.6h.1l.6-.6-.1-.1c-.2-.3-.5-.5-.9-.6-.4-.2-.7-.2-1.1-.2-.8 0-1.5.3-2 .8-.6.5-.8 1.2-.8 2s.3 1.5.8 2c.6.5 1.2.8 2 .8s1.5-.3 2-.8.7-1.1.7-1.8v-.4zm.8 3h3.3v-.9h-2.4V9.2h2.2v-.9h-2.2V6.9h2.4V6H43zm3.9-4.6h1.5v4.6h.8V6.9h1.5V6h-3.8zm6.3-.9h.9v5.5h-.9zm1.5.9h1.5v4.6h.9V6.9h1.5V6h-3.9zm8.8-1c-.8 0-1.5.3-2 .8s-.8 1.2-.8 2 .3 1.5.8 2 1.2.8 2 .8 1.5-.3 2-.8.8-1.2.8-2-.3-1.5-.8-2-1.2-.8-2-.8zm1.9 2.9c0 .6-.2 1.1-.6 1.4-.4.4-.8.6-1.4.6-.5 0-1-.2-1.4-.6-.4-.4-.6-.9-.6-1.4s.2-1.1.6-1.4c.4-.4.8-.6 1.4-.6.5 0 1 .2 1.4.6.4.3.6.8.6 1.4zM70.5 6v3.9L68.1 6h-1v5.5h.9V8.1l-.1-.7 2.6 4.1h.9V6z"/><path id="XMLID_52_" class="st1" d="M60.6 19c-2.1 0-3.8 1.6-3.8 3.7s1.7 3.7 3.8 3.7c2.1 0 3.8-1.6 3.8-3.7S62.7 19 60.6 19zm0 6c-1.1 0-2.1-.9-2.1-2.3 0-1.3 1-2.3 2.1-2.3s2.1.9 2.1 2.3-1 2.3-2.1 2.3zm-8.3-6c-2.1 0-3.8 1.6-3.8 3.7s1.7 3.7 3.8 3.7c2.1 0 3.8-1.6 3.8-3.7S54.4 19 52.3 19zm0 6c-1.1 0-2.1-.9-2.1-2.3 0-1.3 1-2.3 2.1-2.3s2.1.9 2.1 2.3-1 2.3-2.1 2.3zm-9.9-4.8v1.6h3.8c-.1.9-.4 1.5-.9 2-.6.5-1.4 1.2-3 1.2-2.4 0-4.2-1.9-4.2-4.2s1.8-4.2 4.2-4.2c1.3 0 2.2.5 2.9 1.1l1.1-1.1c-1-.9-2.2-1.6-4-1.6-3.2 0-6 2.6-6 5.8 0 3.2 2.7 5.8 6 5.8 1.7 0 3.1-.6 4.1-1.6 1.1-1 1.4-2.5 1.4-3.7 0-.4 0-.7-.1-1h-5.3zm40.3 1.2c-.3-.8-1.3-2.4-3.2-2.4-1.9 0-3.6 1.5-3.6 3.7 0 2.1 1.6 3.7 3.8 3.7 1.7 0 2.7-1 3.2-1.6l-1.4-.8c-.4.6-1 1-1.9 1-.8 0-1.4-.4-1.8-1.1l5.1-2.1-.2-.4zm-5.1 1.2c0-1.4 1.1-2.2 2-2.2.7 0 1.2.3 1.4.8l-3.4 1.4zm-4.2 3.7h1.7v-11h-1.7v11zm-2.7-6.4c-.4-.4-1.1-.8-2-.8-1.9 0-3.6 1.6-3.6 3.7s1.7 3.7 3.6 3.7c.9 0 1.6-.4 2-.8h.1v.5c0 1.4-.8 2.2-2 2.2-1 0-1.6-.7-1.9-1.3l-1.4.6c.4 1 1.5 2.2 3.4 2.2s3.6-1.1 3.6-3.9v-6.7h-1.6v.6zM68.8 25c-1.1 0-2.1-.9-2.1-2.2 0-1.3 1-2.3 2.1-2.3s2 1 2 2.3c0 1.3-.8 2.2-2 2.2zm21.7-9.7h-4v10.9h1.7v-4.1h2.3c1.8 0 3.6-1.3 3.6-3.4s-1.8-3.4-3.6-3.4zm0 5.3h-2.4v-3.7h2.4c1.2 0 1.9 1 1.9 1.9.1.8-.6 1.8-1.9 1.8zm10.3-1.6c-1.2 0-2.4.5-3 1.7l1.5.6c.3-.6.9-.8 1.5-.8.9 0 1.7.5 1.7 1.4v.1c-.3-.2-.9-.4-1.7-.4-1.6 0-3.2.9-3.2 2.5 0 1.5 1.3 2.4 2.8 2.4 1.1 0 1.7-.5 2.1-1.1h.1v.8h1.6V22c0-1.9-1.5-3-3.4-3zm-.2 6c-.5 0-1.3-.3-1.3-.9 0-.8.9-1.2 1.8-1.2.7 0 1.1.2 1.5.4-.2 1-1.1 1.7-2 1.7zm9.4-5.7l-1.9 4.7h-.1l-2-4.7h-1.8l3 6.6-1.7 3.7h1.7l4.6-10.3H110zm-14.9 7h1.7v-11h-1.7v11z"/><g id="XMLID_39_"><linearGradient id="XMLID_19_" gradientUnits="userSpaceOnUse" x1="19.384" y1="541.457" x2="4.584" y2="526.657" gradientTransform="matrix(1 0 0 -1 0 549)"><stop offset="0" stop-color="#00a0ff"/><stop offset=".007" stop-color="#00a1ff"/><stop offset=".26" stop-color="#00beff"/><stop offset=".512" stop-color="#00d2ff"/><stop offset=".76" stop-color="#00dfff"/><stop offset="1" stop-color="#00e3ff"/></linearGradient><path id="XMLID_8_" class="st2" d="M9.3 6.6c-.3.3-.4.7-.4 1.2v19.4c0 .5.2 1 .4 1.2l.1.1 11-10.8v-.2L9.3 6.6z"/><linearGradient id="XMLID_27_" gradientUnits="userSpaceOnUse" x1="30.075" y1="531.499" x2="8.567" y2="531.499" gradientTransform="matrix(1 0 0 -1 0 549)"><stop offset="0" stop-color="#ffe000"/><stop offset=".409" stop-color="#ffbd00"/><stop offset=".775" stop-color="orange"/><stop offset="1" stop-color="#ff9c00"/></linearGradient><path id="XMLID_7_" class="st3" d="M24 21.2l-3.7-3.6v-.2l3.7-3.6h.1l4.3 2.4c1.2.7 1.2 1.8 0 2.5L24 21.2z"/><linearGradient id="XMLID_28_" gradientUnits="userSpaceOnUse" x1="22.04" y1="529.547" x2="1.916" y2="509.423" gradientTransform="matrix(1 0 0 -1 0 549)"><stop offset="0" stop-color="#ff3a44"/><stop offset="1" stop-color="#c31162"/></linearGradient><path id="XMLID_6_" class="st4" d="M24.1 21.2l-3.8-3.7-11 10.9c.4.4 1.1.5 1.8.1l13-7.3"/><linearGradient id="XMLID_29_" gradientUnits="userSpaceOnUse" x1="6.54" y1="548.952" x2="15.526" y2="539.966" gradientTransform="matrix(1 0 0 -1 0 549)"><stop offset="0" stop-color="#32a071"/><stop offset=".069" stop-color="#2da771"/><stop offset=".476" stop-color="#15cf74"/><stop offset=".801" stop-color="#06e775"/><stop offset="1" stop-color="#00f076"/></linearGradient><path id="XMLID_5_" class="st5" d="M24.1 13.8l-13-7.3c-.8-.4-1.4-.4-1.8.1l11.1 10.9 3.7-3.7z"/><g id="XMLID_42_"><path id="XMLID_4_" class="st6" d="M24 21.1l-12.9 7.2c-.7.4-1.4.4-1.8 0l-.1.1.1.1c.4.4 1.1.4 1.8 0L24 21.1z"/><path id="XMLID_3_" class="st7" d="M9.3 28.3c-.3-.3-.4-.7-.4-1.3v.1c0 .5.2 1 .4 1.2z"/></g><path id="XMLID_2_" class="st7" d="M28.5 18.6L24 21.1l.1.1 4.3-2.4c.6-.3.9-.8.9-1.3 0 .4-.3.8-.8 1.1z"/><path id="XMLID_1_" class="st8" d="M11.1 6.7l17.3 9.7c.6.3.9.7.9 1.1 0-.5-.3-.9-.9-1.3L11.1 6.5c-1.2-.7-2.2-.1-2.2 1.3V8c0-1.4 1-2 2.2-1.3z"/></g></svg>