<svg id="Layer_1" xmlns="http://www.w3.org/2000/svg" viewBox="0 0 32 32"><style>.st0{fill:#fff}.st1{fill:#7c4dff}.st2,.st3{fill:#3ab376}.st3,.st4{fill-rule:evenodd;clip-rule:evenodd}.st4{fill:#fff}.st5,.st6{fill:#fb8c00}.st6{display:none}.st7{fill:#5eb500}.st8{fill:#0288d1}.st9{fill:#46a7bb}</style><g id="games"><path class="st0" d="M22.7 20.4c0 1.2-.6 2.2-1.4 2.2s-1.4-1-1.4-2.2c0-1.2.6-2.2 1.4-2.2s1.4 1 1.4 2.2zm2.6-6.9c0 1.1-.6 1.9-1.2 1.9-.7 0-1.2-.9-1.2-1.9 0-1.1.6-1.9 1.2-1.9.6-.1 1.2.8 1.2 1.9zm0 0"/><path class="st0" d="M16.4 2.1s-.1-.1 0 0h-.8L2 6v20l13.6 3.9c.1 0 .3.1.4.1.1 0 .2 0 .3-.1h.1L30 26V6L16.4 2.1zm-2.8 8.1c0 1.2-.6 2.2-1.4 2.2-.8 0-1.4-1-1.4-2.2 0-1.2.6-2.2 1.4-2.2.7 0 1.4 1 1.4 2.2zm-8.8 11c0-1 .5-1.9 1.2-1.9s1.2.8 1.2 1.9c0 1-.5 1.9-1.2 1.9s-1.2-.9-1.2-1.9zm2.8-5.6c0-1.1.6-2.1 1.3-2.1.7 0 1.3.9 1.3 2.1s-.6 2.1-1.3 2.1c-.7 0-1.3-.9-1.3-2.1zM28 8v16l-10.6 2.6V5.4L28 8z"/></g></svg>