<svg xmlns="http://www.w3.org/2000/svg" viewBox="0 0 32 32"><path d="M26.8 17.5c.1-.5.1-1 .1-1.5s0-1-.1-1.5l3-2.3c.3-.3.3-.6.1-.8l-2.9-5c-.1-.1-.4-.3-.9-.1l-3.3 1.3C22 6.9 21 6.4 20 6l-.5-3.3c0-.3-.3-.6-.7-.6h-5.6c-.4 0-.7.3-.7.6L12 6c-1 .4-2 1-2.8 1.6L5.8 6.2c-.4-.1-.7 0-.8.2l-2.9 4.9c-.1.3-.1.5.1.8l3 2.3c-.1.5-.1 1-.1 1.5s0 1 .1 1.5l-3 2.3c-.2.5-.2.7-.1 1L5 25.6c.1.1.4.3.9.1l3.3-1.3c.8.7 1.8 1.2 2.8 1.6l.5 3.3c0 .3.3.6.7.6h5.6c.4 0 .7-.3.7-.6L20 26c1-.4 2-1 2.8-1.6l3.3 1.3c.4.1.7 0 .9-.1l2.9-4.9c.1-.3.1-.6-.1-.8l-3-2.4zM16 21.9c-3.2 0-5.9-2.6-5.9-5.9s2.6-5.9 5.9-5.9 5.9 2.6 5.9 5.9-2.7 5.9-5.9 5.9z" fill="#fff"/></svg>