<?xml version="1.0" encoding="utf-8"?>
<!-- Generator: Adobe Illustrator 21.0.0, SVG Export Plug-In . SVG Version: 6.00 Build 0)  -->
<svg version="1.1" id="Layer_2" xmlns="http://www.w3.org/2000/svg" xmlns:xlink="http://www.w3.org/1999/xlink" x="0px" y="0px"
	 viewBox="0 0 1346 330" style="enable-background:new 0 0 1346 330;" xml:space="preserve">
<style type="text/css">
	.st0{fill:#FFFFFF;}
	.st1{fill:#79A304;}
	.st2{fill:#CAEF33;}
	.st3{fill:#E1FF76;}
	.st4{fill:#ADD30D;}
	.st5{fill:#FAFFCC;}
</style>
<path class="st0" d="M771.2,14.8c0.7,1.7-0.7-2.4,79.6,225.1c0.3,1.4,0.7,2.7,0.7,4.4c0,7.8-6.5,15.6-16.3,15.6
	c-5.8,0-11.2-3.7-13.3-9.5l-16.3-46.9c-0.3-1.4-1.4-2.4-3.1-2.4H710c-1.7,0-3.1,0.7-3.4,2.4l-16,46.9c-2,5.8-7.5,9.2-13.6,9.5
	c-9.9,0-16-7.8-16-15.6c0-1.7,0.3-3.1,0.7-4.4L741,14.8c1.7-5.4,6.5-12.2,15.3-12.2C765.1,2.5,768.9,9.3,771.2,14.8z M718.9,167.8
	c-0.3,0.3-0.3,0.7-0.3,1c0,1,0.7,1.7,1.7,1.7H792c1,0,2.4-0.7,2.4-1.7c0-0.3-0.3-0.7-0.3-1L757,59.6c0-0.7-0.3-1-0.7-1
	c-0.3,0-0.3,0.3-0.7,1L718.9,167.8z"/>
<path class="st0" d="M892.3,107.6c15.3-13.9,36-22.4,58.5-22.4c49,0,88.1,39.1,88.1,88.1c0,48.3-39.1,87.4-88.1,87.4
	c-22.4,0-43.2-8.5-58.5-22.4v75.1c0,7.5-6.8,13.9-14.6,13.9c-7.1,0-14.3-6.5-14.3-13.9V100.4c0-7.5,7.1-13.9,14.3-13.9
	c7.8,0,14.6,6.5,14.6,13.9V107.6z M950.8,114.4c-32.6,0-58.5,25.8-58.5,58.8c0,32.6,25.8,58.5,58.5,58.5c33,0,58.8-25.8,58.8-58.5
	C1009.6,140.2,983.7,114.4,950.8,114.4z"/>
<path class="st0" d="M1079.6,107.6c15.3-13.9,36-22.4,58.5-22.4c49,0,88.1,39.1,88.1,88.1c0,48.3-39.1,87.4-88.1,87.4
	c-22.4,0-43.2-8.5-58.5-22.4v75.1c0,7.5-6.8,13.9-14.6,13.9c-7.1,0-14.3-6.5-14.3-13.9V100.4c0-7.5,7.1-13.9,14.3-13.9
	c7.8,0,14.6,6.5,14.6,13.9V107.6z M1138.1,114.4c-32.6,0-58.5,25.8-58.5,58.8c0,32.6,25.8,58.5,58.5,58.5c33,0,58.8-25.8,58.8-58.5
	C1196.9,140.2,1171.1,114.4,1138.1,114.4z"/>
<path class="st0" d="M1283.9,260.9c-25.8,0-52.7-15.3-52.7-29.6c0-7.5,5.4-13.6,13.6-13.6c12.6,0,19.7,15,42.5,15
	c17.3,0,24.5-9.2,24.5-18c0-8.5-7.5-18.4-26.2-27.5l-20.7-10.2c-23.8-11.6-32.3-27.9-32.3-45.6c0-23.5,21.8-45.2,54.4-45.2
	c21.4,0,39.1,10.2,45.2,17c4.4,4.8,5.1,8.5,5.1,11.9c0,5.4-5.4,11.9-13.9,11.9c-12.9,0-17.3-12.2-37.7-12.2
	c-15.6,0-22.1,8.5-22.1,16.3c0,8.8,4.8,15.6,21.4,24.1l24.8,12.9c24.8,12.9,31.6,29.6,31.6,46.6
	C1341.4,238.5,1322,260.9,1283.9,260.9z"/>
<path class="st1" d="M102.8,56.9c-5,0-68.7,0.1-68.7,0.1c-15.3,0-26.5-11.2-26.5-26.2c0-15.6,11.2-27.5,26.5-27.5h113.2
	c16,0,32,14.3,32,31.3c0,5.8-2.4,13.3-5.8,18.7c-20.2,32.1-76.9,124.2-90.8,146.7c-2,3.2-1.1,5,2.9,5s66.8-0.3,66.8-0.3
	c15.6,0,26.9,11.6,26.9,26.5c0,15.3-11.2,27.2-26.9,27.2H39.5c-16,0-32-13.9-32-31.3c0-5.8,2.4-12.9,5.8-18.4
	C25.1,190.3,90.5,86,105.6,61.8C107.6,58.6,107.8,56.9,102.8,56.9z"/>
<path class="st1" d="M310.2,201.4c12.1,0,19.2,7.7,19.2,18.9c0,29.3-43.4,39.4-67,39.4c-48.1,0-86.9-38.7-86.9-87.2
	c0-47.8,38.7-86.5,86.9-86.5c44.8,0,80.5,33.3,84.8,77.1v2.4c0,13.5-11.4,24.6-24.9,24.6h-92.2c-0.7,0-0.7,0.7-0.7,1
	c3.4,10.4,16.8,23.2,34.3,23.2C289.7,214.2,292.7,201.4,310.2,201.4z M262.1,134.7c-17.5,0-29.6,11.4-32.7,18.9c0,0.7-0.3,1,0.7,1
	h58.2c2.7,0,4.7,0,6.7-0.3C291.7,144.5,279.3,134.7,262.1,134.7z"/>
<path class="st1" d="M358,49.9c0-20.5,11.1-30,25.6-30c13.5,0,24.6,9.4,24.6,30v178.8c0,20.5-11.1,29.6-24.6,29.6
	c-14.5,0-25.6-9.1-25.6-29.6V49.9z"/>
<path class="st1" d="M424.3,49.9c0-20.5,11.1-30,25.6-30c13.5,0,24.6,9.4,24.6,30v178.8c0,20.5-11.1,29.6-24.6,29.6
	c-14.5,0-25.6-9.1-25.6-29.6V49.9z"/>
<path class="st1" d="M570.7,85.9c47.8,0,86.5,38.7,86.5,86.5c0,48.5-38.7,87.2-86.5,87.2c-48.5,0-87.2-38.7-87.2-87.2
	C483.5,124.6,522.2,85.9,570.7,85.9z M570.7,209.1c19.9,0,36-16.2,36-36.7c0-19.9-16.2-36-36-36c-20.5,0-36.4,16.2-36.4,36
	C534.4,193,550.2,209.1,570.7,209.1z"/>
<g>
	<path class="st2" d="M35.2,255.7c-13.9,0-29.5-12.3-29.5-28.8c0-5.1,2.1-11.8,5.4-17c11.8-18.4,78.9-125.4,92.3-146.7
		c0.8-1.3,2.5-4,1.2-6.4c-1.2-2.2-3.9-2.4-6.2-2.4c-5,0-68.7,0.1-68.7,0.1c-13.9,0-24-10-24-23.7c0-14.3,10.3-25,24-25h113.2
		c15.4,0,29.5,13.7,29.5,28.8c0,5.2-2.2,12.2-5.4,17.4c-20,31.7-74.5,120.3-90.8,146.7c-1.5,2.4-1.8,4.5-0.9,6.2
		c0.9,1.7,2.9,2.6,5.9,2.6l0.5,0c7.1,0,65.7-0.3,66.3-0.3c14.1,0,24.3,10.1,24.3,24c0,14.1-10.5,24.7-24.4,24.7H35.2z"/>
	<path class="st3" d="M142.9,8.2c13.9,0,27,12.8,27,26.3c0,4.7-2.1,11.3-5,16c-20,31.7-74.6,120.3-90.8,146.7
		c-2.5,4.1-1.9,7-0.9,8.7c1.4,2.6,4.1,3.9,8,3.9l0.5,0c7.1,0,65.7-0.3,66.3-0.3c12.7,0,21.9,9.1,21.9,21.5
		c0,12.9-9.2,22.2-21.9,22.2H35.2c-6.5,0-13.3-2.8-18.5-7.8c-5.4-5.1-8.4-11.7-8.4-18.5c0-4.7,2-10.8,5-15.7
		c11.8-18.5,79-125.5,92.3-146.7c1-1.6,3.3-5.3,1.3-8.9c-2.1-3.7-6.6-3.7-8.4-3.7c-4.9,0-68.1,0.1-68.7,0.1
		C17.3,51.9,8.2,43,8.2,30.7c0-13.1,9.1-22.5,21.5-22.5H142.9 M142.9,3.2H29.7C14.4,3.2,3.2,15.1,3.2,30.7c0,15,11.2,26.2,26.5,26.2
		c0,0,63.7-0.1,68.7-0.1s4.9,1.8,2.9,5C86.1,86,20.7,190.3,9,208.6c-3.4,5.4-5.8,12.6-5.8,18.4c0,17.3,16,31.3,32,31.3H148
		c15.6,0,26.9-11.9,26.9-27.2c0-15-11.2-26.5-26.9-26.5c0,0-59.1,0.3-66.3,0.3c-0.2,0-0.4,0-0.5,0c-4,0-4.9-1.8-2.9-5
		c13.9-22.5,70.6-114.5,90.8-146.7c3.4-5.4,5.8-12.9,5.8-18.7C174.9,17.5,158.9,3.2,142.9,3.2L142.9,3.2z"/>
</g>
<g>
	<g>
		<path class="st2" d="M258.4,257.1c-22.6,0-43.8-8.8-59.7-24.7c-15.9-15.9-24.6-37.2-24.6-60c0-46.3,37.8-84,84.4-84
			c20.9,0,40.8,7.6,55.9,21.5c15,13.7,24.4,32.6,26.5,53.2v2.2c0,12-10.3,22.1-22.4,22.1h-92.2c-1.2,0-3.2,0.7-3.2,3.5v0.4l0.1,0.4
			c4,12.3,18.8,25,36.7,25c14.8,0,22.5-4,29.3-7.6c5.3-2.8,9.8-5.2,17.1-5.2c10.3,0,16.7,6.3,16.7,16.4
			C322.9,248.1,279.5,257.1,258.4,257.1z M262.2,132.2c-22.7,0-35.3,11-39.1,20.4l-0.2,0.5v0.5l0,0.1c-0.1,0.4-0.2,1.5,0.6,2.4
			c0.9,1,2.1,1,2.5,1h67.1c1,0,1.8-0.4,2.3-1.2c0.4-0.5,0.6-1.2,0.6-1.9C296.1,148.8,283.7,132.2,262.2,132.2z"/>
	</g>
	<g>
		<path class="st3" d="M258.4,90.9c20.3,0,39.5,7.4,54.2,20.8c14.5,13.3,23.6,31.6,25.6,51.5v2.1c0,10.6-9.1,19.6-19.9,19.6h-92.2
			c-2.8,0-5.7,2.1-5.7,6v0.8l0.2,0.7c4.2,13.1,20,26.7,39.1,26.7c15.5,0,23.8-4.4,30.5-7.9c5.2-2.7,9.3-4.9,16-4.9
			c9,0,14.2,5,14.2,13.9c0,10.9-7.3,19.7-21.7,26.1c-13.6,6.1-29.7,8.3-40.3,8.3c-22,0-42.5-8.5-57.9-23.9
			c-15.4-15.5-23.9-36.2-23.9-58.2c0-21.8,8.5-42.3,23.9-57.6C215.9,99.4,236.5,90.9,258.4,90.9 M220.4,153.4
			c-0.2,1.7,0.2,3.2,1.3,4.3c1.1,1.2,2.6,1.8,4.4,1.8h67.1c1.7,0,3.4-0.8,4.4-2.3c0.7-0.9,1-2.1,1-3.3c0-4.5-5-10.8-9.7-14.7
			c-5.2-4.4-14.1-9.6-26.7-9.6c-15,0-34.8,5.8-41.4,22l-0.4,0.9V153.4 M258.4,85.9c-48.1,0-86.9,38.7-86.9,86.5
			c0,48.5,38.7,87.2,86.9,87.2c23.6,0,67-10.1,67-39.4c0-11.1-7.1-18.9-19.2-18.9c-17.5,0-20.5,12.8-46.5,12.8
			c-17.5,0-31-12.8-34.3-23.2c0-0.3,0-1,0.7-1h92.2c13.5,0,24.9-11.1,24.9-24.6V163C338.9,119.2,303.2,85.9,258.4,85.9L258.4,85.9z
			 M226.1,154.6c-1,0-0.7-0.3-0.7-1c3-7.4,13.8-18.9,36.8-18.9s33.7,19.9,31,19.9H226.1L226.1,154.6z"/>
	</g>
</g>
<g>
	<g>
		<path class="st2" d="M379.6,255.8c-14.7,0-23.1-9.9-23.1-27.1V49.9c0-17.5,8.4-27.5,23.1-27.5c13.8,0,22.1,10.3,22.1,27.5v178.8
			C401.7,245.6,393.4,255.8,379.6,255.8z"/>
	</g>
	<g>
		<path class="st3" d="M379.6,24.9c3.9,0,9.4,1,13.6,5.6c3.9,4.3,5.9,11,5.9,19.3v178.8c0,15.7-7.1,24.6-19.6,24.6
			c-13.3,0-20.6-8.7-20.6-24.6V49.9C359,33.8,366.3,24.9,379.6,24.9 M379.6,19.9c-14.5,0-25.6,9.4-25.6,30v178.8
			c0,20.5,11.1,29.6,25.6,29.6c13.5,0,24.6-9.1,24.6-29.6V49.9C404.2,29.3,393.1,19.9,379.6,19.9L379.6,19.9z"/>
	</g>
</g>
<g>
	<g>
		<path class="st2" d="M445.9,255.8c-14.7,0-23.1-9.9-23.1-27.1V49.9c0-17.5,8.4-27.5,23.1-27.5c13.8,0,22.1,10.3,22.1,27.5v178.8
			C468,245.6,459.7,255.8,445.9,255.8z"/>
	</g>
	<g>
		<path class="st3" d="M445.9,24.9c3.9,0,9.4,1,13.6,5.6c3.9,4.3,5.9,11,5.9,19.3v178.8c0,15.7-7.1,24.6-19.6,24.6
			c-13.3,0-20.6-8.7-20.6-24.6V49.9C425.3,33.8,432.6,24.9,445.9,24.9 M445.9,19.9c-14.5,0-25.6,9.4-25.6,30v178.8
			c0,20.5,11.1,29.6,25.6,29.6c13.5,0,24.6-9.1,24.6-29.6V49.9C470.5,29.3,459.3,19.9,445.9,19.9L445.9,19.9z"/>
	</g>
</g>
<g>
	<g>
		<path class="st2" d="M566.7,257.1c-22.8,0-44.1-8.8-60-24.7c-15.9-15.9-24.7-37.2-24.7-60c0-22.5,8.8-43.6,24.7-59.4
			c16-15.9,37.3-24.6,60-24.6c46.3,0,84,37.7,84,84c0,22.7-8.7,44.1-24.6,60C610.3,248.4,589.2,257.1,566.7,257.1z M566.7,133.9
			c-21.8,0-38.9,16.9-38.9,38.5c0,22,17.1,39.2,38.9,39.2c21.2,0,38.5-17.6,38.5-39.2C605.2,151.2,588,133.9,566.7,133.9z"/>
	</g>
	<g>
		<path class="st3" d="M566.7,90.9c45,0,81.5,36.6,81.5,81.5c0,22.1-8.5,42.8-23.9,58.3c-15.4,15.4-35.8,23.9-57.6,23.9
			c-22.1,0-42.8-8.5-58.2-24c-15.4-15.4-24-36.1-24-58.2c0-21.8,8.5-42.3,23.9-57.6C523.9,99.4,544.6,90.9,566.7,90.9 M566.7,214.1
			c11,0,21.3-4.3,29-12.1c7.7-7.8,12-18.3,12-29.6c0-22.6-18.4-41-41-41c-11.2,0-21.7,4.3-29.4,12c-7.7,7.7-11.9,18-11.9,29
			C525.4,195.8,543.5,214.1,566.7,214.1 M566.7,85.9c-48.5,0-87.2,38.7-87.2,86.5c0,48.5,38.7,87.2,87.2,87.2
			c47.8,0,86.5-38.7,86.5-87.2C653.2,124.6,614.5,85.9,566.7,85.9L566.7,85.9z M566.7,209.1c-20.5,0-36.4-16.2-36.4-36.7
			c0-19.9,15.8-36,36.4-36c19.9,0,36,16.2,36,36C602.7,193,586.6,209.1,566.7,209.1L566.7,209.1z"/>
	</g>
</g>
<path class="st4" d="M380.8,19.9c0,0,1.4-0.7-2.4,5.9s-10.6,14.6-10.6,17.4v159.4c0,8.6,0,56.2-5.2,50c-7.5-8.9-9.5-8.8-8.9-44.9
	c0.1-3.7,0.3-154.6,0.3-161.2s2.5-14.3,6.2-18.4C369.1,18.6,380.8,19.9,380.8,19.9z"/>
<path class="st4" d="M447.2,19.9c0,0,1.4-0.7-2.4,5.9c-3.8,6.6-10.6,14.6-10.6,17.4v159.4c0,8.6,0,56.2-5.2,50
	c-7.5-8.9-9.5-8.8-8.9-44.9c0.1-3.7,0.3-154.6,0.3-161.2s2.5-14.3,6.2-18.4C435.5,18.6,447.2,19.9,447.2,19.9z"/>
<path class="st4" d="M575,86.7c0,0-37.3,11.3-63.7,55.2s-0.9,97.3-0.9,97.3S461,201,487.1,136.5C517.1,76.5,575,86.7,575,86.7z"/>
<path class="st4" d="M267.2,86.7c0,0-37.3,11.3-63.7,55.2s-0.9,97.3-0.9,97.3s-49.4-38.2-23.3-102.8
	C209.3,76.5,267.2,86.7,267.2,86.7z"/>
<path class="st5" d="M387.9,32.1c0,0-15.1-2.4-20,4.3c-4.9,6.7-3.9,43.4-3.9,43.4"/>
<path class="st5" d="M454,32.1c0,0-15.1-2.4-20,4.3c-4.9,6.7-3.9,43.4-3.9,43.4"/>
<path class="st5" d="M239.3,102c0,0-26.3,6.7-38.2,25.6s-13,39.3-13,39.3"/>
<path class="st5" d="M544.5,104c0,0-26.3,6.7-38.2,25.6c-11.9,18.9-13,39.3-13,39.3"/>
<g>
	<path class="st2" d="M35.2,255.7c-13.9,0-29.5-12.3-29.5-28.8c0-5.1,2.1-11.8,5.4-17c11.8-18.4,78.9-125.4,92.3-146.7
		c0.8-1.3,2.5-4,1.2-6.4c-1.2-2.2-3.9-2.4-6.2-2.4c-5,0-68.7,0.1-68.7,0.1c-13.9,0-24-10-24-23.7c0-14.3,10.3-25,24-25h113.2
		c15.4,0,29.5,13.7,29.5,28.8c0,5.2-2.2,12.2-5.4,17.4c-20,31.7-74.5,120.3-90.8,146.7c-1.5,2.4-1.8,4.5-0.9,6.2
		c0.9,1.7,2.9,2.6,5.9,2.6l0.5,0c7.1,0,65.7-0.3,66.3-0.3c14.1,0,24.3,10.1,24.3,24c0,14.1-10.5,24.7-24.4,24.7H35.2z"/>
	<path class="st3" d="M142.9,8.2c13.9,0,27,12.8,27,26.3c0,4.7-2.1,11.3-5,16c-20,31.7-74.6,120.3-90.8,146.7
		c-2.5,4.1-1.9,7-0.9,8.7c1.4,2.6,4.1,3.9,8,3.9l0.5,0c7.1,0,65.7-0.3,66.3-0.3c12.7,0,21.9,9.1,21.9,21.5
		c0,12.9-9.2,22.2-21.9,22.2H35.2c-6.5,0-13.3-2.8-18.5-7.8c-5.4-5.1-8.4-11.7-8.4-18.5c0-4.7,2-10.8,5-15.7
		c11.8-18.5,79-125.5,92.3-146.7c1-1.6,3.3-5.3,1.3-8.9c-2.1-3.7-6.6-3.7-8.4-3.7c-4.9,0-68.1,0.1-68.7,0.1
		C17.3,51.9,8.2,43,8.2,30.7c0-13.1,9.1-22.5,21.5-22.5H142.9 M142.9,3.2H29.7C14.4,3.2,3.2,15.1,3.2,30.7c0,15,11.2,26.2,26.5,26.2
		c0,0,63.7-0.1,68.7-0.1s4.9,1.8,2.9,5C86.1,86,20.7,190.3,9,208.6c-3.4,5.4-5.8,12.6-5.8,18.4c0,17.3,16,31.3,32,31.3H148
		c15.6,0,26.9-11.9,26.9-27.2c0-15-11.2-26.5-26.9-26.5c0,0-59.1,0.3-66.3,0.3c-0.2,0-0.4,0-0.5,0c-4,0-4.9-1.8-2.9-5
		c13.9-22.5,70.6-114.5,90.8-146.7c3.4-5.4,5.8-12.9,5.8-18.7C174.9,17.5,158.9,3.2,142.9,3.2L142.9,3.2z"/>
</g>
<g>
	<path class="st4" d="M102.2,58.2c-13,21-89.1,143.8-93.2,150.3c-3.4,5.4-5.8,12.6-5.8,18.4c0,17.3,16,31.3,32,31.3h7.6
		C-39.5,245.2,163.9,49.2,102.2,58.2z"/>
</g>
<g>
	<path class="st4" d="M15.4,53.1C11.9,30.2,53.9,7.2,97.9,3.2H29.7C14.4,3.2,3.2,15.1,3.2,30.7C3.2,40.4,7.9,48.5,15.4,53.1z"/>
</g>
<path class="st5" d="M18.8,34.9c0,0-2.9-5.9,2.1-14c6-9.7,57-6,57-6L18.8,34.9z"/>
<path class="st5" d="M43.2,185.2c0,0-25,27-25,42.6c0,11.4,15,15.4,15,15.4"/>
</svg>
