<svg id="Layer_2" xmlns="http://www.w3.org/2000/svg" viewBox="0 0 1320 330"><style>.st0{fill:#79a304}.st1{fill:#caef33}.st2{fill:#e1ff76}.st3{fill:#fff}.st4{fill:#add30d}.st5{fill:#faffcc}</style><path class="st0" d="M8 211c0-12.5 9.1-25.6 26.9-25.6 8.8 0 18.5 3.4 22.9 12.8 2 6.1 8.1 9.4 14.5 9.4 9.8 0 17.5-8.1 17.5-18.2V29.8c0-15.2 12.1-25.9 26.9-25.9 15.5 0 26.3 10.8 26.3 25.9v159.6c0 39.4-31.6 71-70.7 71-25.6 0-49.5-13.8-61.3-35.4-2-4.3-3-9.3-3-14zm281.1-8.8c12.1 0 19.2 7.7 19.2 18.9 0 29.3-43.4 39.4-67 39.4-48.1 0-86.9-38.7-86.9-87.2 0-47.8 38.7-86.5 86.9-86.5 44.8 0 80.5 33.3 84.8 77.1v2.4c0 13.5-11.4 24.6-24.9 24.6H209c-.7 0-.7.7-.7 1 3.4 10.4 16.8 23.2 34.3 23.2 26-.1 29-12.9 46.5-12.9zM241 135.5c-17.5 0-29.6 11.4-32.7 18.9 0 .7-.3 1 .7 1h58.2c2.7 0 4.7 0 6.7-.3-3.3-9.8-15.8-19.6-32.9-19.6zm95.9-84.8c0-20.5 11.1-30 25.6-30 13.5 0 24.6 9.4 24.6 30v178.8c0 20.5-11.1 29.6-24.6 29.6-14.5 0-25.6-9.1-25.6-29.6V50.7zm66.3 0c0-20.5 11.1-30 25.6-30 13.5 0 24.6 9.4 24.6 30v178.8c0 20.5-11.1 29.6-24.6 29.6-14.5 0-25.6-9.1-25.6-29.6V50.7zm146.4 36c47.8 0 86.5 38.7 86.5 86.5 0 48.5-38.7 87.2-86.5 87.2-48.5 0-87.2-38.7-87.2-87.2 0-47.8 38.7-86.5 87.2-86.5zm0 123.2c19.9 0 36-16.2 36-36.7 0-19.9-16.2-36-36-36-20.5 0-36.4 16.2-36.4 36 0 20.6 15.9 36.7 36.4 36.7z"/><path class="st1" d="M68.3 257.9c-24.5 0-47.7-13.3-59-34-1.8-3.9-2.8-8.5-2.8-13 0-11.5 8.4-23.1 24.4-23.1 4.6 0 15.8 1.1 20.6 11.2 2.3 6.7 8.9 11 16.8 11 11.2 0 20-9.1 20-20.7V29.8c0-13.4 10.5-23.4 24.4-23.4 14 0 23.8 9.6 23.8 23.4v159.6c0 37.8-30.6 68.5-68.2 68.5z"/><path class="st2" d="M112.8 8.9c12.7 0 21.3 8.4 21.3 20.9v159.6c0 17.7-6.8 34.3-19.2 46.8-12.4 12.4-28.9 19.3-46.5 19.3-23.6 0-45.9-12.8-56.8-32.6C9.9 219.3 9 215.1 9 211c0-5.2 2-10.3 5.4-14.1 4-4.3 9.7-6.5 16.5-6.5 4.1 0 14 .9 18.3 9.7 2.7 7.6 10.2 12.5 19.1 12.5 6.1 0 11.8-2.4 16-6.8 4.2-4.4 6.5-10.2 6.5-16.3V29.8c0-11.9 9.5-20.9 22-20.9m0-5c-14.8 0-27 10.8-27 25.9v159.6c0 10.1-7.7 18.2-17.5 18.2-6.4 0-12.5-3.4-14.5-9.4-4.4-9.4-14.1-12.8-22.9-12.8C13.1 185.4 4 198.5 4 211c0 4.7 1 9.8 3 14.1 11.8 21.5 35.7 35.4 61.3 35.4 39.1 0 70.7-31.6 70.7-71V29.8c0-15.1-10.7-25.9-26.2-25.9z"/><path class="st1" d="M237.3 257.9c-22.6 0-43.8-8.8-59.7-24.7-15.9-15.9-24.6-37.2-24.6-60 0-46.3 37.8-84 84.4-84 20.9 0 40.8 7.6 55.9 21.5 15 13.7 24.4 32.6 26.5 53.2v2.2c0 12-10.3 22.1-22.4 22.1H205c-1.2 0-3.2.7-3.2 3.5v.4l.1.4c4 12.3 18.8 25 36.7 25 14.8 0 22.5-4 29.3-7.6 5.3-2.8 9.8-5.2 17.1-5.2 10.3 0 16.7 6.3 16.7 16.4.1 27.8-43.3 36.8-64.4 36.8zM237 133c-18.4 0-31.5 11.9-35 20.4l-.2.5v.6c-.1.4-.2 1.5.6 2.4.9 1 2.1 1 2.5 1h58.2c2.7 0 4.9 0 7.1-.4l2.9-.5-1-2.8c-3.4-10.5-16.7-21.2-35.1-21.2z"/><path class="st2" d="M237.3 91.7c20.3 0 39.5 7.4 54.2 20.8 14.5 13.3 23.6 31.6 25.6 51.5v2.1c0 10.6-9.1 19.6-19.9 19.6H205c-2.8 0-5.7 2.1-5.7 6v.8l.2.7c4.2 13.1 20 26.7 39.1 26.7 15.5 0 23.8-4.4 30.5-7.9 5.2-2.7 9.3-4.9 16-4.9 9 0 14.2 5 14.2 13.9 0 10.9-7.3 19.7-21.7 26.1-13.6 6.1-29.7 8.3-40.3 8.3-22 0-42.5-8.5-57.9-23.9-15.4-15.5-23.9-36.2-23.9-58.2 0-21.8 8.5-42.3 23.9-57.6 15.4-15.5 36-24 57.9-24m-38 62.5c-.2 1.7.2 3.2 1.3 4.3 1.1 1.2 2.6 1.8 4.4 1.8h58.2c2.9 0 5.1 0 7.6-.4l5.8-1-1.9-5.6c-5.2-15-22.9-22.9-37.7-22.9-11.8 0-31.1 6.8-37.3 22l-.4.9v.9m38-67.5c-48.1 0-86.9 38.7-86.9 86.5 0 48.5 38.7 87.2 86.9 87.2 23.6 0 67-10.1 67-39.4 0-11.1-7.1-18.9-19.2-18.9-17.5 0-20.5 12.8-46.5 12.8-17.5 0-31-12.8-34.3-23.2 0-.3 0-1 .7-1h92.2c13.5 0 24.9-11.1 24.9-24.6v-2.4c-4.3-43.6-40-77-84.8-77zM205 155.4c-1 0-.7-.3-.7-1 3-7.4 15.2-18.9 32.7-18.9 17.2 0 29.6 9.8 33 19.5-2 .3-4 .3-6.7.3H205v.1z"/><path class="st1" d="M358.5 256.6c-14.7 0-23.1-9.9-23.1-27.1V50.7c0-17.5 8.4-27.5 23.1-27.5 13.8 0 22.1 10.3 22.1 27.5v178.8c-.1 17-8.3 27.1-22.1 27.1z"/><path class="st2" d="M358.5 25.7c3.9 0 9.4 1 13.6 5.6 3.9 4.3 5.9 11 5.9 19.3v178.8c0 15.7-7.1 24.6-19.6 24.6-13.3 0-20.6-8.7-20.6-24.6V50.7c.1-16.1 7.4-25 20.7-25m0-5c-14.5 0-25.6 9.4-25.6 30v178.8c0 20.5 11.1 29.6 25.6 29.6 13.5 0 24.6-9.1 24.6-29.6V50.7c-.1-20.5-11.2-30-24.6-30z"/><path class="st1" d="M424.8 256.6c-14.7 0-23.1-9.9-23.1-27.1V50.7c0-17.5 8.4-27.5 23.1-27.5 13.8 0 22.1 10.3 22.1 27.5v178.8c-.1 17-8.3 27.1-22.1 27.1z"/><path class="st2" d="M424.8 25.7c3.9 0 9.4 1 13.6 5.6 3.9 4.3 5.9 11 5.9 19.3v178.8c0 15.7-7.1 24.6-19.6 24.6-13.3 0-20.6-8.7-20.6-24.6V50.7c.1-16.1 7.4-25 20.7-25m0-5c-14.5 0-25.6 9.4-25.6 30v178.8c0 20.5 11.1 29.6 25.6 29.6 13.5 0 24.6-9.1 24.6-29.6V50.7c-.1-20.5-11.2-30-24.6-30z"/><path class="st1" d="M545.6 257.9c-22.8 0-44.1-8.8-60-24.7s-24.7-37.2-24.7-60c0-22.5 8.8-43.6 24.7-59.4 16-15.9 37.3-24.6 60-24.6 46.3 0 84 37.7 84 84 0 22.7-8.7 44.1-24.6 60-15.8 16-36.9 24.7-59.4 24.7zm0-123.2c-21.8 0-38.9 16.9-38.9 38.5 0 22 17.1 39.2 38.9 39.2 21.2 0 38.5-17.6 38.5-39.2 0-21.2-17.3-38.5-38.5-38.5z"/><path class="st2" d="M545.6 91.7c45 0 81.5 36.6 81.5 81.5 0 22.1-8.5 42.8-23.9 58.3-15.4 15.4-35.8 23.9-57.6 23.9-22.1 0-42.8-8.5-58.2-24-15.4-15.4-24-36.1-24-58.2 0-21.8 8.5-42.3 23.9-57.6 15.5-15.4 36.2-23.9 58.3-23.9m0 123.2c11 0 21.3-4.3 29-12.1 7.7-7.8 12-18.3 12-29.6 0-22.6-18.4-41-41-41-11.2 0-21.7 4.3-29.4 12-7.7 7.7-11.9 18-11.9 29-.1 23.4 18.1 41.7 41.3 41.7m0-128.2c-48.5 0-87.2 38.7-87.2 86.5 0 48.5 38.7 87.2 87.2 87.2 47.8 0 86.5-38.7 86.5-87.2 0-47.8-38.7-86.5-86.5-86.5zm0 123.2c-20.5 0-36.4-16.2-36.4-36.7 0-19.9 15.8-36 36.4-36 19.9 0 36 16.2 36 36 0 20.6-16.1 36.7-36 36.7z"/><path class="st3" d="M752.5 16.7c.7 1.7-.7-2.4 78.8 222.9.3 1.3.7 2.7.7 4.4 0 7.7-6.4 15.5-16.2 15.5-5.7 0-11.1-3.7-13.1-9.4l-16.2-46.5c-.3-1.3-1.3-2.4-3-2.4h-91.6c-1.7 0-3 .7-3.4 2.4L672.7 250c-2 5.7-7.4 9.1-13.5 9.4-9.8 0-15.8-7.7-15.8-15.5 0-1.7.3-3 .7-4.4l78.4-222.9c1.7-5.4 6.4-12.1 15.2-12.1s12.5 6.8 14.8 12.2zm-51.8 151.5c-.3.3-.3.7-.3 1 0 1 .7 1.7 1.7 1.7h71c1 0 2.4-.7 2.4-1.7 0-.3-.3-.7-.3-1L738.4 61.1c0-.7-.3-1-.7-1s-.3.3-.7 1l-36.3 107.1zm171-59.6c15.2-13.8 35.7-22.2 57.9-22.2 48.5 0 87.2 38.7 87.2 87.2 0 47.8-41.7 86.5-90.2 86.5-22.2 0-39.8-8.4-54.9-22.2l-3 74.4c0 7.4-6.7 13.8-14.5 13.8-7.1 0-14.1-6.4-14.1-13.8l3-210.8c0-7.4 7.1-13.8 14.1-13.8 7.7 0 14.5 6.4 14.5 13.8v7.1zm57.9 6.7c-32.3 0-57.9 25.6-57.9 58.2 0 32.3 25.6 57.9 57.9 57.9 32.7 0 58.2-25.6 58.2-57.9 0-32.6-25.5-58.2-58.2-58.2zm126.9-6.7c15.2-13.8 35.7-22.2 57.9-22.2 48.5 0 87.2 38.7 87.2 87.2 0 47.8-38.7 86.5-87.2 86.5-22.2 0-42.8-8.4-57.9-22.2v74.4c0 7.4-6.7 13.8-14.5 13.8-7.1 0-14.1-6.4-14.1-13.8V101.5c0-7.4 7.1-13.8 14.1-13.8 7.7 0 14.5 6.4 14.5 13.8v7.1zm57.9 6.7c-32.3 0-57.9 25.6-57.9 58.2 0 32.3 25.6 57.9 57.9 57.9 32.7 0 58.2-25.6 58.2-57.9 0-32.6-25.5-58.2-58.2-58.2zm144.7 145.1c-25.6 0-52.2-15.2-52.2-29.3 0-7.4 5.4-13.5 13.5-13.5 12.5 0 19.5 14.8 42.1 14.8 17.2 0 24.2-9.1 24.2-17.8 0-8.4-7.4-18.2-25.9-27.3l-20.5-10.1c-23.6-11.4-32-27.6-32-45.1 0-23.2 21.5-44.8 53.9-44.8 21.2 0 38.7 10.1 44.8 16.8 4.4 4.7 5.1 8.4 5.1 11.8 0 5.4-5.4 11.8-13.8 11.8-12.8 0-17.2-12.1-37.4-12.1-15.5 0-21.9 8.4-21.9 16.2 0 8.8 4.7 15.5 21.2 23.9l24.6 12.8c24.6 12.8 31.3 29.3 31.3 46.1-.1 23.6-19.3 45.8-57 45.8z"/><path class="st4" d="M110.4 4s3.7-1.2 0 5.4C106.6 16 99.2 25 99.2 27.8v159.4c0 8.6-5.6 14.2-13 17.2-7.5 3.1-13.8 2.6-13.8 2.6 9.2-2.5 13-10.3 13.3-15.6.2-3.7.1-163.7.1-163.7 0-2.3 2.3-10.8 5.8-14.5C100.4 4 110.4 4 110.4 4zm249.2 16.7s1.4-.7-2.4 5.9c-3.8 6.6-10.6 14.6-10.6 17.4v159.4c0 8.6 0 56.2-5.2 50-7.5-8.9-9.5-8.8-8.9-44.9.1-3.7.3-154.6.3-161.2s2.5-14.3 6.2-18.4c9-9.5 20.6-8.2 20.6-8.2zm66.4 0s1.4-.7-2.4 5.9C419.8 33.2 413 41.2 413 44v159.4c0 8.6 0 56.2-5.2 50-7.5-8.9-9.5-8.8-8.9-44.9.1-3.7.3-154.6.3-161.2s2.5-14.3 6.2-18.4c8.9-9.5 20.6-8.2 20.6-8.2zm127.9 66.8s-37.3 11.3-63.7 55.2c-26.3 43.9-.9 97.3-.9 97.3s-49.4-38.2-23.3-102.8c30-59.9 87.9-49.7 87.9-49.7zm-307.8 0s-37.3 11.3-63.7 55.2-.9 97.3-.9 97.3-49.4-38.2-23.3-102.8c30-59.9 87.9-49.7 87.9-49.7z"/><path class="st5" d="M96.7 64.2s-1.1-36.8 3.9-43.4 20-4.3 20-4.3m246.1 16.4s-15.1-2.4-20 4.3-3.9 43.4-3.9 43.4m90.1-47.7s-15.1-2.4-20 4.3-3.9 43.5-3.9 43.5m-190.8 22.1s-26.3 6.7-38.2 25.6-13 39.3-13 39.3m356.4-62.8s-26.3 6.7-38.2 25.6-13 39.3-13 39.3"/><path class="st4" d="M20.6 205.6c-4.9 10.9-8.1 27.6-8.1 27.6s-10.8-12.3-8-26.3c3.5-16.4 14.9-23.3 32.6-20.8s-11.6 8.6-16.5 19.5z"/><path class="st5" d="M34.1 198.9s-9.6-4.2-15.4 5.1c-5.7 9.3.6 16.8.6 16.8"/></svg>