<?xml version="1.0" encoding="utf-8"?>
<!-- Generator: Adobe Illustrator 23.0.1, SVG Export Plug-In . SVG Version: 6.00 Build 0)  -->
<svg version="1.1" id="Layer_1" xmlns="http://www.w3.org/2000/svg" xmlns:xlink="http://www.w3.org/1999/xlink" x="0px" y="0px"
	 viewBox="0 0 32 32" style="enable-background:new 0 0 32 32;" xml:space="preserve">
<style type="text/css">
	.st0{fill:#D9DADB;}
</style>
<g>
	<path class="st0" d="M5.8,11c-0.5,0-0.9,0.2-1.2,0.5C4.2,11.9,4,12.3,4,12.7v7.2c0,0.5,0.2,0.9,0.5,1.2c0.3,0.3,0.8,0.5,1.2,0.5
		c0.5,0,0.9-0.2,1.2-0.5c0.3-0.3,0.5-0.7,0.5-1.2v-7.2c0-0.5-0.2-0.9-0.5-1.2C6.6,11.2,6.2,11,5.8,11L5.8,11z"/>
	<path class="st0" d="M8.2,22.5c0,0.5,0.2,0.9,0.5,1.3c0.4,0.4,0.8,0.5,1.3,0.5h1.3v3.8c0,0.5,0.2,0.9,0.5,1.2
		c0.3,0.3,0.7,0.5,1.2,0.5s0.9-0.2,1.2-0.5s0.5-0.7,0.5-1.2v-3.8H17v3.8c0,0.5,0.2,0.9,0.5,1.2c0.3,0.3,0.8,0.5,1.2,0.5
		c0.5,0,0.9-0.2,1.2-0.5c0.3-0.3,0.5-0.7,0.5-1.2v-3.8h1.3c0.5,0,0.9-0.2,1.3-0.5c0.4-0.4,0.5-0.8,0.5-1.3V11.3H8.2V22.5z"/>
	<path class="st0" d="M19.8,4.6L21,2.4c0.1-0.2,0.1-0.3,0-0.4c-0.1-0.1-0.3,0-0.3,0.1l-1.2,2.2c-1.1-0.5-2.2-0.7-3.4-0.7
		s-2.3,0.2-3.4,0.7l-1.2-2.2C11.3,2,11.1,2,11,2c-0.1,0.1-0.2,0.2-0.1,0.3l1.2,2.2C10.9,5.2,9.9,6,9.2,7.1s-1.1,2.3-1.1,3.6h15.7
		c0-1.3-0.4-2.5-1.1-3.6C22,6,21.1,5.2,19.8,4.6L19.8,4.6z M12.9,7.8C12.8,7.9,12.6,8,12.4,8s-0.3-0.1-0.5-0.2
		c-0.1-0.1-0.2-0.3-0.2-0.5s0.1-0.3,0.2-0.5c0.1-0.1,0.3-0.2,0.5-0.2s0.3,0.1,0.5,0.2C13,7,13.1,7.1,13.1,7.3
		C13.1,7.5,13,7.6,12.9,7.8L12.9,7.8z M20,7.8C19.9,7.9,19.7,8,19.5,8S19.2,7.9,19,7.8c-0.1-0.1-0.2-0.3-0.2-0.5S18.9,7,19,6.8
		c0.1-0.1,0.3-0.2,0.5-0.2s0.3,0.1,0.5,0.2c0.1,0.1,0.2,0.3,0.2,0.5S20.2,7.6,20,7.8L20,7.8z"/>
	<path class="st0" d="M27.5,11.5c-0.3-0.3-0.8-0.5-1.2-0.5c-0.5,0-0.9,0.2-1.2,0.5c-0.3,0.3-0.5,0.7-0.5,1.2v7.2
		c0,0.5,0.2,0.9,0.5,1.2c0.3,0.3,0.7,0.5,1.2,0.5s0.9-0.2,1.2-0.5c0.3-0.3,0.5-0.7,0.5-1.2v-7.2C28,12.3,27.8,11.8,27.5,11.5
		L27.5,11.5z"/>
</g>
</svg>
