<?xml version="1.0" encoding="utf-8"?>
<!-- Generator: Adobe Illustrator 21.0.0, SVG Export Plug-In . SVG Version: 6.00 Build 0)  -->
<svg version="1.1" id="Layer_1" xmlns="http://www.w3.org/2000/svg" xmlns:xlink="http://www.w3.org/1999/xlink" x="0px" y="0px"
	 viewBox="0 0 32 32" style="enable-background:new 0 0 32 32;" xml:space="preserve">
<style type="text/css">
	.st0{fill:#FFFFFF;}
	.st1{fill-rule:evenodd;clip-rule:evenodd;fill:#FFFFFF;}
	.st2{display:none;fill:#FB8C00;}
	.st3{fill:#5EB500;}
	.st4{fill:#0288D1;}
	.st5{fill:#46A7BB;}
</style>
<g id="apple">
	<path d="M24,16.9c0-3.5,3-5.2,3.2-5.3c-1.7-2.4-4.4-2.7-5.4-2.8c-2.3-0.2-4.5,1.3-5.6,1.3c-1.2,0-3-1.3-4.9-1.2
		c-2.5,0-4.8,1.4-6.1,3.5C2.6,16.6,4.6,23,7.1,26.5c1.2,1.7,2.7,3.6,4.7,3.5c1.9-0.1,2.6-1.1,4.8-1.1c2.3,0,2.9,1.1,4.9,1.1
		c2,0,3.3-1.7,4.5-3.4c1.4-2,2-3.9,2-4C28,22.5,24.1,21.1,24,16.9L24,16.9z M20.3,6.5c1-1.2,1.7-2.8,1.5-4.5
		c-1.5,0.1-3.3,0.9-4.3,2.1c-1,1-1.8,2.7-1.6,4.3C17.6,8.6,19.3,7.7,20.3,6.5L20.3,6.5z M20.3,6.5"/>
</g>
</svg>
