<?xml version="1.0" encoding="utf-8"?>
<!-- Generator: Adobe Illustrator 21.0.0, SVG Export Plug-In . SVG Version: 6.00 Build 0)  -->
<svg version="1.1" id="Layer_1" xmlns="http://www.w3.org/2000/svg" xmlns:xlink="http://www.w3.org/1999/xlink" x="0px" y="0px"
	 viewBox="0 0 32 32" style="enable-background:new 0 0 32 32;" xml:space="preserve">
<style type="text/css">
	.st0{fill:#FFFFFF;}
	.st1{fill:#7C4DFF;}
	.st2{fill:#3AB376;}
	.st3{fill-rule:evenodd;clip-rule:evenodd;fill:#3AB376;}
	.st4{fill-rule:evenodd;clip-rule:evenodd;fill:#FFFFFF;}
	.st5{fill:#FB8C00;}
	.st6{display:none;fill:#FB8C00;}
	.st7{fill:#5EB500;}
	.st8{fill:#0288D1;}
	.st9{fill:#46A7BB;}
</style>
<g id="apps">
	<path class="st0" d="M13,14H3c-0.5,0-1-0.4-1-1V3c0-0.5,0.5-1,1-1h10c0.6,0,1,0.5,1,1v10C14,13.6,13.6,14,13,14z"/>
	<rect x="18" y="2" class="st0" width="12" height="12"/>
	<rect x="2" y="2" class="st0" width="12" height="12"/>
	<rect x="2" y="18" class="st0" width="12" height="12"/>
	<polygon class="st0" points="30,23 26,23 26,19 23,19 23,23 19,23 19,26 23,26 23,30 26,30 26,26 30,26 	"/>
</g>
</svg>
