<?xml version="1.0" encoding="utf-8"?>
<!-- Generator: Adobe Illustrator 21.0.0, SVG Export Plug-In . SVG Version: 6.00 Build 0)  -->
<svg version="1.1" id="Layer_1" xmlns="http://www.w3.org/2000/svg" xmlns:xlink="http://www.w3.org/1999/xlink" x="0px" y="0px"
	 viewBox="0 0 32 32" style="enable-background:new 0 0 32 32;" xml:space="preserve">
<style type="text/css">
	.st0{fill:#FFFFFF;}
	.st1{fill:#3AB376;}
	.st2{fill-rule:evenodd;clip-rule:evenodd;fill:#3AB376;}
	.st3{fill-rule:evenodd;clip-rule:evenodd;fill:#FFFFFF;}
	.st4{fill:#FB8C00;}
	.st5{display:none;fill:#FB8C00;}
	.st6{fill:#5EB500;}
	.st7{fill:#0288D1;}
	.st8{fill:#46A7BB;}
</style>
<g id="books">
	<path class="st0" d="M29.1,6.2c-0.4,0-0.8,0-1.1,0V5h-0.4c-8,0-10.7,1.9-11.5,2.9C15.1,6.9,12.5,5,4.5,5H4.1v1.3
		c-0.4,0-0.7,0-1.1,0H2v18.1h0.9c9.9,0,11.9,2.3,12.2,2.7h1.8c0.3-0.4,2.4-2.7,12.1-2.7H30V6.2H29.1z M15.4,23.5
		c-1.2-0.9-3.6-1.9-8.4-2.2V6.1c6.8,0.4,8.2,2.4,8.4,2.7V23.5z M16.6,23.5V8.8c0.2-0.4,1.7-2.3,8.4-2.7v15.2
		C20.3,21.6,17.8,22.6,16.6,23.5z"/>
</g>
</svg>
