<?xml version="1.0" encoding="utf-8"?>
<!-- Generator: Adobe Illustrator 21.0.0, SVG Export Plug-In . SVG Version: 6.00 Build 0)  -->
<svg version="1.1" id="Layer_1" xmlns="http://www.w3.org/2000/svg" xmlns:xlink="http://www.w3.org/1999/xlink" x="0px" y="0px"
	 viewBox="0 0 120 35" style="enable-background:new 0 0 120 35;" xml:space="preserve">
<style type="text/css">
	.st0{fill:#FFFFFF;}
	.st1{fill:#565656;}
	.st2{fill:url(#XMLID_19_);}
	.st3{fill:url(#XMLID_27_);}
	.st4{fill:url(#XMLID_28_);}
	.st5{fill:url(#XMLID_29_);}
	.st6{opacity:0.2;enable-background:new    ;}
	.st7{opacity:0.12;enable-background:new    ;}
	.st8{opacity:0.25;fill:#FFFFFF;enable-background:new    ;}
</style>
<g id="XMLID_37_">
	<path class="st0" d="M115.6,35H4.4C2,35,0,33,0,30.6V4.4C0,2,2,0,4.4,0h111.1c2.4,0,4.4,2,4.4,4.4v26.2C120,33,118,35,115.6,35z"/>
</g>
<g id="XMLID_92_">
	<g id="XMLID_93_">
		<path id="XMLID_94_" class="st1" d="M115.6,0.7c2.1,0,3.7,1.6,3.7,3.7v26.2c0,2-1.7,3.7-3.7,3.7H4.4c-2.1,0-3.7-1.6-3.7-3.7V4.4
			c0-2,1.7-3.7,3.7-3.7H115.6 M115.6,0H4.4C2,0,0,2,0,4.4v26.2C0,33,2,35,4.4,35h111.1c2.4,0,4.4-2,4.4-4.4V4.4C120,2,118,0,115.6,0
			L115.6,0z"/>
	</g>
</g>
<g>
	<path class="st1" d="M42.2,8.5h-2.8v0.8h1.9c-0.1,0.4-0.2,0.7-0.4,0.9c-0.4,0.4-0.9,0.6-1.4,0.6c-0.5,0-1-0.2-1.4-0.6
		c-0.4-0.4-0.6-0.8-0.6-1.4c0-0.6,0.2-1.1,0.6-1.4c0.4-0.4,0.8-0.6,1.4-0.6c0.6,0,1,0.2,1.4,0.6L41,7.4l0.6-0.6l-0.1-0.1
		c-0.2-0.3-0.5-0.5-0.9-0.6c-0.4-0.2-0.7-0.2-1.1-0.2c-0.8,0-1.5,0.3-2,0.8c-0.6,0.5-0.8,1.2-0.8,2s0.3,1.5,0.8,2
		c0.6,0.5,1.2,0.8,2,0.8c0.8,0,1.5-0.3,2-0.8c0.5-0.5,0.7-1.1,0.7-1.8C42.2,8.8,42.2,8.7,42.2,8.5L42.2,8.5z"/>
	<polygon class="st1" points="43,11.5 46.3,11.5 46.3,10.6 43.9,10.6 43.9,9.2 46.1,9.2 46.1,8.3 43.9,8.3 43.9,6.9 46.3,6.9 
		46.3,6 43,6 	"/>
	<polygon class="st1" points="46.9,6.9 48.4,6.9 48.4,11.5 49.2,11.5 49.2,6.9 50.7,6.9 50.7,6 46.9,6 	"/>
	<rect x="53.2" y="6" class="st1" width="0.9" height="5.5"/>
	<polygon class="st1" points="54.7,6.9 56.2,6.9 56.2,11.5 57.1,11.5 57.1,6.9 58.6,6.9 58.6,6 54.7,6 	"/>
	<path class="st1" d="M63.5,5.9c-0.8,0-1.5,0.3-2,0.8c-0.5,0.5-0.8,1.2-0.8,2s0.3,1.5,0.8,2c0.5,0.5,1.2,0.8,2,0.8s1.5-0.3,2-0.8
		c0.5-0.5,0.8-1.2,0.8-2c0-0.8-0.3-1.5-0.8-2C65,6.2,64.3,5.9,63.5,5.9z M65.4,8.8c0,0.6-0.2,1.1-0.6,1.4c-0.4,0.4-0.8,0.6-1.4,0.6
		c-0.5,0-1-0.2-1.4-0.6c-0.4-0.4-0.6-0.9-0.6-1.4s0.2-1.1,0.6-1.4c0.4-0.4,0.8-0.6,1.4-0.6c0.5,0,1,0.2,1.4,0.6
		C65.2,7.7,65.4,8.2,65.4,8.8z"/>
	<polygon class="st1" points="70.5,6 70.5,9.2 70.5,9.9 68.1,6 67.1,6 67.1,11.5 68,11.5 68,8.1 67.9,7.4 70.5,11.5 71.4,11.5 
		71.4,6 	"/>
</g>
<path id="XMLID_52_" class="st1" d="M60.6,19c-2.1,0-3.8,1.6-3.8,3.7c0,2.1,1.7,3.7,3.8,3.7c2.1,0,3.8-1.6,3.8-3.7
	C64.4,20.6,62.7,19,60.6,19z M60.6,25c-1.1,0-2.1-0.9-2.1-2.3c0-1.3,1-2.3,2.1-2.3c1.1,0,2.1,0.9,2.1,2.3C62.7,24.1,61.7,25,60.6,25
	z M52.3,19c-2.1,0-3.8,1.6-3.8,3.7c0,2.1,1.7,3.7,3.8,3.7c2.1,0,3.8-1.6,3.8-3.7C56.1,20.6,54.4,19,52.3,19z M52.3,25
	c-1.1,0-2.1-0.9-2.1-2.3c0-1.3,1-2.3,2.1-2.3c1.1,0,2.1,0.9,2.1,2.3C54.4,24.1,53.4,25,52.3,25z M42.4,20.2v1.6h3.8
	c-0.1,0.9-0.4,1.5-0.9,2c-0.6,0.5-1.4,1.2-3,1.2c-2.4,0-4.2-1.9-4.2-4.2s1.8-4.2,4.2-4.2c1.3,0,2.2,0.5,2.9,1.1l1.1-1.1
	c-1-0.9-2.2-1.6-4-1.6c-3.2,0-6,2.6-6,5.8c0,3.2,2.7,5.8,6,5.8c1.7,0,3.1-0.6,4.1-1.6c1.1-1,1.4-2.5,1.4-3.7c0-0.4,0-0.7-0.1-1H42.4
	z M82.7,21.4c-0.3-0.8-1.3-2.4-3.2-2.4c-1.9,0-3.6,1.5-3.6,3.7c0,2.1,1.6,3.7,3.8,3.7c1.7,0,2.7-1,3.2-1.6L81.5,24
	c-0.4,0.6-1,1-1.9,1c-0.8,0-1.4-0.4-1.8-1.1l5.1-2.1L82.7,21.4z M77.6,22.6c0-1.4,1.1-2.2,2-2.2c0.7,0,1.2,0.3,1.4,0.8L77.6,22.6z
	 M73.4,26.3h1.7V15.3h-1.7V26.3z M70.7,19.9L70.7,19.9c-0.4-0.4-1.1-0.8-2-0.8c-1.9,0-3.6,1.6-3.6,3.7c0,2.1,1.7,3.7,3.6,3.7
	c0.9,0,1.6-0.4,2-0.8h0.1v0.5c0,1.4-0.8,2.2-2,2.2c-1,0-1.6-0.7-1.9-1.3l-1.4,0.6c0.4,1,1.5,2.2,3.4,2.2c1.9,0,3.6-1.1,3.6-3.9v-6.7
	h-1.6V19.9z M68.8,25c-1.1,0-2.1-0.9-2.1-2.2c0-1.3,1-2.3,2.1-2.3c1.1,0,2,1,2,2.3C70.8,24.1,70,25,68.8,25z M90.5,15.3h-4v10.9h1.7
	v-4.1h2.3c1.8,0,3.6-1.3,3.6-3.4S92.3,15.3,90.5,15.3z M90.5,20.6h-2.4v-3.7h2.4c1.2,0,1.9,1,1.9,1.9C92.5,19.6,91.8,20.6,90.5,20.6
	z M100.8,19c-1.2,0-2.4,0.5-3,1.7l1.5,0.6c0.3-0.6,0.9-0.8,1.5-0.8c0.9,0,1.7,0.5,1.7,1.4V22c-0.3-0.2-0.9-0.4-1.7-0.4
	c-1.6,0-3.2,0.9-3.2,2.5c0,1.5,1.3,2.4,2.8,2.4c1.1,0,1.7-0.5,2.1-1.1h0.1v0.8h1.6V22C104.2,20.1,102.7,19,100.8,19z M100.6,25
	c-0.5,0-1.3-0.3-1.3-0.9c0-0.8,0.9-1.2,1.8-1.2c0.7,0,1.1,0.2,1.5,0.4C102.4,24.3,101.5,25,100.6,25z M110,19.3l-1.9,4.7H108l-2-4.7
	h-1.8l3,6.6l-1.7,3.7h1.7l4.6-10.3H110z M95.1,26.3h1.7V15.3h-1.7V26.3z"/>
<g id="XMLID_39_">
	
		<linearGradient id="XMLID_19_" gradientUnits="userSpaceOnUse" x1="19.3839" y1="541.4567" x2="4.5837" y2="526.6565" gradientTransform="matrix(1 0 0 -1 0 549)">
		<stop  offset="0" style="stop-color:#00A0FF"/>
		<stop  offset="6.574450e-03" style="stop-color:#00A1FF"/>
		<stop  offset="0.2601" style="stop-color:#00BEFF"/>
		<stop  offset="0.5122" style="stop-color:#00D2FF"/>
		<stop  offset="0.7604" style="stop-color:#00DFFF"/>
		<stop  offset="1" style="stop-color:#00E3FF"/>
	</linearGradient>
	<path id="XMLID_8_" class="st2" d="M9.3,6.6C9,6.9,8.9,7.3,8.9,7.8v19.4c0,0.5,0.2,1,0.4,1.2l0.1,0.1l11-10.8v-0.1v-0.1L9.3,6.6
		L9.3,6.6z"/>
	
		<linearGradient id="XMLID_27_" gradientUnits="userSpaceOnUse" x1="30.0749" y1="531.4987" x2="8.5666" y2="531.4987" gradientTransform="matrix(1 0 0 -1 0 549)">
		<stop  offset="0" style="stop-color:#FFE000"/>
		<stop  offset="0.4087" style="stop-color:#FFBD00"/>
		<stop  offset="0.7754" style="stop-color:#FFA500"/>
		<stop  offset="1" style="stop-color:#FF9C00"/>
	</linearGradient>
	<path id="XMLID_7_" class="st3" d="M24,21.2l-3.7-3.6v-0.1v-0.1l3.7-3.6l0.1,0l4.3,2.4c1.2,0.7,1.2,1.8,0,2.5L24,21.2L24,21.2z"/>
	
		<linearGradient id="XMLID_28_" gradientUnits="userSpaceOnUse" x1="22.0404" y1="529.547" x2="1.9159" y2="509.4225" gradientTransform="matrix(1 0 0 -1 0 549)">
		<stop  offset="0" style="stop-color:#FF3A44"/>
		<stop  offset="1" style="stop-color:#C31162"/>
	</linearGradient>
	<path id="XMLID_6_" class="st4" d="M24.1,21.2l-3.8-3.7L9.3,28.4c0.4,0.4,1.1,0.5,1.8,0.1L24.1,21.2"/>
	
		<linearGradient id="XMLID_29_" gradientUnits="userSpaceOnUse" x1="6.5395" y1="548.9522" x2="15.5258" y2="539.9659" gradientTransform="matrix(1 0 0 -1 0 549)">
		<stop  offset="0" style="stop-color:#32A071"/>
		<stop  offset="6.850000e-02" style="stop-color:#2DA771"/>
		<stop  offset="0.4762" style="stop-color:#15CF74"/>
		<stop  offset="0.8009" style="stop-color:#06E775"/>
		<stop  offset="1" style="stop-color:#00F076"/>
	</linearGradient>
	<path id="XMLID_5_" class="st5" d="M24.1,13.8l-13-7.3c-0.8-0.4-1.4-0.4-1.8,0.1l11.1,10.9L24.1,13.8z"/>
	<g id="XMLID_42_">
		<path id="XMLID_4_" class="st6" d="M24,21.1l-12.9,7.2c-0.7,0.4-1.4,0.4-1.8,0l0,0l-0.1,0.1l0,0l0.1,0.1l0,0
			c0.4,0.4,1.1,0.4,1.8,0L24,21.1L24,21.1z"/>
		<path id="XMLID_3_" class="st7" d="M9.3,28.3C9,28,8.9,27.6,8.9,27v0.1c0,0.5,0.2,1,0.4,1.2V28.3L9.3,28.3z"/>
	</g>
	<path id="XMLID_2_" class="st7" d="M28.5,18.6L24,21.1l0.1,0.1l4.3-2.4c0.6-0.3,0.9-0.8,0.9-1.3l0,0C29.3,17.9,29,18.3,28.5,18.6z"
		/>
	<path id="XMLID_1_" class="st8" d="M11.1,6.7l17.3,9.7c0.6,0.3,0.9,0.7,0.9,1.1l0,0c0-0.5-0.3-0.9-0.9-1.3L11.1,6.5
		C9.9,5.8,8.9,6.4,8.9,7.8V8C8.9,6.6,9.9,6,11.1,6.7z"/>
</g>
</svg>
