<?xml version="1.0" encoding="utf-8"?>
<!-- Generator: Adobe Illustrator 21.0.0, SVG Export Plug-In . SVG Version: 6.00 Build 0)  -->
<svg version="1.1" id="Layer_1" xmlns="http://www.w3.org/2000/svg" xmlns:xlink="http://www.w3.org/1999/xlink" x="0px" y="0px"
	 viewBox="0 0 32 32" style="enable-background:new 0 0 32 32;" xml:space="preserve">
<style type="text/css">
	.st0{fill:#FFFFFF;}
	.st1{fill:#7C4DFF;}
	.st2{fill:#3AB376;}
	.st3{fill-rule:evenodd;clip-rule:evenodd;fill:#3AB376;}
	.st4{fill-rule:evenodd;clip-rule:evenodd;fill:#FFFFFF;}
	.st5{fill:#FB8C00;}
	.st6{display:none;fill:#FB8C00;}
	.st7{fill:#5EB500;}
	.st8{fill:#0288D1;}
	.st9{fill:#46A7BB;}
</style>
<g id="games">
	<g>
		<path class="st0" d="M22.7,20.4c0,1.2-0.6,2.2-1.4,2.2s-1.4-1-1.4-2.2c0-1.2,0.6-2.2,1.4-2.2S22.7,19.2,22.7,20.4L22.7,20.4z
			 M22.7,20.4"/>
		<path class="st0" d="M25.3,13.5c0,1.1-0.6,1.9-1.2,1.9c-0.7,0-1.2-0.9-1.2-1.9c0-1.1,0.6-1.9,1.2-1.9
			C24.7,11.5,25.3,12.4,25.3,13.5L25.3,13.5z M25.3,13.5"/>
	</g>
	<path class="st0" d="M16.4,2.1C16.4,2.1,16.3,2,16.4,2.1c-0.1,0-0.1,0-0.1,0l0,0l0,0c0,0,0,0,0,0c-0.2,0-0.3,0-0.5,0
		c0,0-0.1,0-0.1,0c0,0-0.1,0-0.1,0L2,6v20l13.6,3.9c0.1,0,0.3,0.1,0.4,0.1c0.1,0,0.2,0,0.3-0.1l0,0l0.1,0c0,0,0,0,0,0L30,26V6
		L16.4,2.1z M13.6,10.2c0,1.2-0.6,2.2-1.4,2.2c-0.8,0-1.4-1-1.4-2.2C10.8,9,11.4,8,12.2,8C12.9,8,13.6,9,13.6,10.2z M4.8,21.2
		c0-1,0.5-1.9,1.2-1.9c0.7,0,1.2,0.8,1.2,1.9c0,1-0.5,1.9-1.2,1.9C5.3,23.1,4.8,22.2,4.8,21.2z M7.6,15.6c0-1.1,0.6-2.1,1.3-2.1
		c0.7,0,1.3,0.9,1.3,2.1s-0.6,2.1-1.3,2.1C8.2,17.7,7.6,16.8,7.6,15.6z M28,8v16l-10.6,2.6V5.4L28,8z"/>
</g>
</svg>
