<?xml version="1.0" encoding="utf-8"?>
<!-- Generator: Adobe Illustrator 23.0.1, SVG Export Plug-In . SVG Version: 6.00 Build 0)  -->
<svg version="1.1" id="Layer_1" xmlns="http://www.w3.org/2000/svg" xmlns:xlink="http://www.w3.org/1999/xlink" x="0px" y="0px"
	 viewBox="0 0 32 32" style="enable-background:new 0 0 32 32;" xml:space="preserve">
<path id="googleplay" d="M7.7,2.4C7,1.9,6.1,1.9,5.4,2.2l12.5,12.5l4.1-4.1L7.7,2.4z M4.2,3.4C4.1,3.7,4,4.1,4,4.5v22.9
	c0,0.4,0.1,0.7,0.2,1.1l12.5-12.5L4.2,3.4z M17.9,17.1L5.4,29.6c0.3,0.2,0.7,0.2,1,0.2c0.4,0,0.9-0.1,1.3-0.3L22,21.2L17.9,17.1z
	 M27.4,13.8C27.4,13.8,27.4,13.8,27.4,13.8l-4-2.3L19,15.9l4.4,4.4c0,0,4-2.3,4-2.3c0.7-0.4,1.2-1.2,1.2-2.1
	C28.6,15,28.1,14.3,27.4,13.8z"/>
</svg>
