<?xml version="1.0" encoding="utf-8"?>
<!-- Generator: Adobe Illustrator 21.0.0, SVG Export Plug-In . SVG Version: 6.00 Build 0)  -->
<svg version="1.1" id="Layer_2" xmlns="http://www.w3.org/2000/svg" xmlns:xlink="http://www.w3.org/1999/xlink" x="0px" y="0px"
	 viewBox="0 0 1346 330" style="enable-background:new 0 0 1346 330;" xml:space="preserve">
<style type="text/css">
	.st0{fill:#969696;}
	.st1{fill:#B6B6B6;}
</style>
<path class="st0" d="M771.2,14.8c0.7,1.7-0.7-2.4,79.6,225.1c0.3,1.4,0.7,2.7,0.7,4.4c0,7.8-6.5,15.6-16.3,15.6
	c-5.8,0-11.2-3.7-13.3-9.5l-16.3-46.9c-0.3-1.4-1.4-2.4-3.1-2.4H710c-1.7,0-3.1,0.7-3.4,2.4l-16,46.9c-2,5.8-7.5,9.2-13.6,9.5
	c-9.9,0-16-7.8-16-15.6c0-1.7,0.3-3.1,0.7-4.4L741,14.8c1.7-5.4,6.5-12.2,15.3-12.2C765.1,2.5,768.9,9.3,771.2,14.8z M718.9,167.8
	c-0.3,0.3-0.3,0.7-0.3,1c0,1,0.7,1.7,1.7,1.7H792c1,0,2.4-0.7,2.4-1.7c0-0.3-0.3-0.7-0.3-1L757,59.6c0-0.7-0.3-1-0.7-1
	c-0.3,0-0.3,0.3-0.7,1L718.9,167.8z"/>
<path class="st0" d="M892.3,107.6c15.3-13.9,36-22.4,58.5-22.4c49,0,88.1,39.1,88.1,88.1c0,48.3-39.1,87.4-88.1,87.4
	c-22.4,0-43.2-8.5-58.5-22.4v75.1c0,7.5-6.8,13.9-14.6,13.9c-7.1,0-14.3-6.5-14.3-13.9V100.4c0-7.5,7.1-13.9,14.3-13.9
	c7.8,0,14.6,6.5,14.6,13.9V107.6z M950.8,114.4c-32.6,0-58.5,25.8-58.5,58.8c0,32.6,25.8,58.5,58.5,58.5c33,0,58.8-25.8,58.8-58.5
	C1009.6,140.2,983.7,114.4,950.8,114.4z"/>
<path class="st0" d="M1079.6,107.6c15.3-13.9,36-22.4,58.5-22.4c49,0,88.1,39.1,88.1,88.1c0,48.3-39.1,87.4-88.1,87.4
	c-22.4,0-43.2-8.5-58.5-22.4v75.1c0,7.5-6.8,13.9-14.6,13.9c-7.1,0-14.3-6.5-14.3-13.9V100.4c0-7.5,7.1-13.9,14.3-13.9
	c7.8,0,14.6,6.5,14.6,13.9V107.6z M1138.1,114.4c-32.6,0-58.5,25.8-58.5,58.8c0,32.6,25.8,58.5,58.5,58.5c33,0,58.8-25.8,58.8-58.5
	C1196.9,140.2,1171.1,114.4,1138.1,114.4z"/>
<path class="st0" d="M1283.9,260.9c-25.8,0-52.7-15.3-52.7-29.6c0-7.5,5.4-13.6,13.6-13.6c12.6,0,19.7,15,42.5,15
	c17.3,0,24.5-9.2,24.5-18c0-8.5-7.5-18.4-26.2-27.5l-20.7-10.2c-23.8-11.6-32.3-27.9-32.3-45.6c0-23.5,21.8-45.2,54.4-45.2
	c21.4,0,39.1,10.2,45.2,17c4.4,4.8,5.1,8.5,5.1,11.9c0,5.4-5.4,11.9-13.9,11.9c-12.9,0-17.3-12.2-37.7-12.2
	c-15.6,0-22.1,8.5-22.1,16.3c0,8.8,4.8,15.6,21.4,24.1l24.8,12.9c24.8,12.9,31.6,29.6,31.6,46.6
	C1341.4,238.5,1322,260.9,1283.9,260.9z"/>
<path class="st1" d="M304.2,201.4c12.1,0,19.2,7.7,19.2,18.9c0,29.3-43.4,39.4-67,39.4c-48.1,0-86.9-38.7-86.9-87.2
	c0-47.8,38.7-86.5,86.9-86.5c44.8,0,80.5,33.3,84.8,77.1v2.4c0,13.5-11.4,24.6-24.9,24.6h-92.2c-0.7,0-0.7,0.7-0.7,1
	c3.4,10.4,16.8,23.2,34.3,23.2C283.7,214.2,286.7,201.4,304.2,201.4z M260.2,134.7c-23,0-33.8,11.4-36.8,18.9c0,0.7-0.3,1,0.7,1
	h67.1C293.9,154.6,283.2,134.7,260.2,134.7z"/>
<path class="st1" d="M352,49.9c0-20.5,11.1-30,25.6-30c13.5,0,24.6,9.4,24.6,30v178.8c0,20.5-11.1,29.6-24.6,29.6
	c-14.5,0-25.6-9.1-25.6-29.6V49.9z"/>
<path class="st1" d="M418.3,49.9c0-20.5,11.1-30,25.6-30c13.5,0,24.6,9.4,24.6,30v178.8c0,20.5-11.1,29.6-24.6,29.6
	c-14.5,0-25.6-9.1-25.6-29.6V49.9z"/>
<path class="st1" d="M564.7,85.9c47.8,0,86.5,38.7,86.5,86.5c0,48.5-38.7,87.2-86.5,87.2c-48.5,0-87.2-38.7-87.2-87.2
	C477.5,124.6,516.2,85.9,564.7,85.9z M564.7,209.1c19.9,0,36-16.2,36-36.7c0-19.9-16.2-36-36-36c-20.5,0-36.4,16.2-36.4,36
	C528.4,193,544.2,209.1,564.7,209.1z"/>
<path class="st1" d="M100.4,56.9c-5,0-68.7,0.1-68.7,0.1c-15.3,0-26.5-11.2-26.5-26.2c0-15.6,11.2-27.5,26.5-27.5h113.2
	c16,0,32,14.3,32,31.3c0,5.8-2.4,13.3-5.8,18.7c-20.2,32.1-76.9,124.2-90.8,146.7c-2,3.2-1.1,5,2.9,5s66.8-0.3,66.8-0.3
	c15.6,0,26.9,11.6,26.9,26.5c0,15.3-11.2,27.2-26.9,27.2H37.2c-16,0-32-13.9-32-31.3c0-5.8,2.4-12.9,5.8-18.4
	C22.7,190.3,88.1,86,103.3,61.8C105.3,58.6,105.4,56.9,100.4,56.9z"/>
</svg>
