<?xml version="1.0" encoding="utf-8"?>
<!-- Generator: Adobe Illustrator 21.0.0, SVG Export Plug-In . SVG Version: 6.00 Build 0)  -->
<svg version="1.1" id="Layer_4" xmlns="http://www.w3.org/2000/svg" xmlns:xlink="http://www.w3.org/1999/xlink" x="0px" y="0px"
	 viewBox="0 0 1320 330" style="enable-background:new 0 0 1320 330;" xml:space="preserve">
<style type="text/css">
	.st0{fill:#B6B6B6;}
	.st1{fill:#969696;}
</style>
<g>
	<g>
		<g>
			<path class="st0" d="M68.3,257.9c-24.5,0-47.7-13.3-59-34c-1.8-3.9-2.8-8.5-2.8-13c0-11.5,8.4-23.1,24.4-23.1
				c4.6,0,15.8,1.1,20.6,11.2c2.3,6.7,8.9,11,16.8,11c11.2,0,20-9.1,20-20.7V29.8c0-13.4,10.5-23.4,24.4-23.4
				c14,0,23.8,9.6,23.8,23.4v159.6C136.5,227.2,105.9,257.9,68.3,257.9z"/>
		</g>
		<g>
			<path class="st0" d="M112.8,8.9c12.7,0,21.3,8.4,21.3,20.9v159.6c0,17.7-6.8,34.3-19.2,46.8c-12.4,12.4-28.9,19.3-46.5,19.3
				c-23.6,0-45.9-12.8-56.8-32.6C9.9,219.3,9,215.1,9,211c0-5.2,2-10.3,5.4-14.1c4-4.3,9.7-6.5,16.5-6.5c4.1,0,14,0.9,18.3,9.7
				c2.7,7.6,10.2,12.5,19.1,12.5c6.1,0,11.8-2.4,16-6.8c4.2-4.4,6.5-10.2,6.5-16.3V29.8C90.8,17.9,100.3,8.9,112.8,8.9 M112.8,3.9
				C98,3.9,85.8,14.7,85.8,29.8v159.6c0,10.1-7.7,18.2-17.5,18.2c-6.4,0-12.5-3.4-14.5-9.4c-4.4-9.4-14.1-12.8-22.9-12.8
				C13.1,185.4,4,198.5,4,211c0,4.7,1,9.8,3,14.1c11.8,21.5,35.7,35.4,61.3,35.4c39.1,0,70.7-31.6,70.7-71V29.8
				C139,14.7,128.3,3.9,112.8,3.9L112.8,3.9z"/>
		</g>
	</g>
	<g>
		<g>
			<path class="st0" d="M237.3,257.9c-22.6,0-43.8-8.8-59.7-24.7c-15.9-15.9-24.6-37.2-24.6-60c0-46.3,37.8-84,84.4-84
				c20.9,0,40.8,7.6,55.9,21.5c15,13.7,24.4,32.6,26.5,53.2v2.2c0,12-10.3,22.1-22.4,22.1H205c-1.2,0-3.2,0.7-3.2,3.5v0.4l0.1,0.4
				c4,12.3,18.8,25,36.7,25c14.8,0,22.5-4,29.3-7.6c5.3-2.8,9.8-5.2,17.1-5.2c10.3,0,16.7,6.3,16.7,16.4
				C301.8,248.9,258.4,257.9,237.3,257.9z M237,133c-18.4,0-31.5,11.9-35,20.4l-0.2,0.5v0.5l0,0.1c-0.1,0.4-0.2,1.5,0.6,2.4
				c0.9,1,2.1,1,2.5,1h58.2c2.7,0,4.9,0,7.1-0.4l2.9-0.5l-1-2.8C268.7,143.7,255.4,133,237,133z"/>
		</g>
		<g>
			<path class="st0" d="M237.3,91.7c20.3,0,39.5,7.4,54.2,20.8c14.5,13.3,23.6,31.6,25.6,51.5v2.1c0,10.6-9.1,19.6-19.9,19.6H205
				c-2.8,0-5.7,2.1-5.7,6v0.8l0.2,0.7c4.2,13.1,20,26.7,39.1,26.7c15.5,0,23.8-4.4,30.5-7.9c5.2-2.7,9.3-4.9,16-4.9
				c9,0,14.2,5,14.2,13.9c0,10.9-7.3,19.7-21.7,26.1c-13.6,6.1-29.7,8.3-40.3,8.3c-22,0-42.5-8.5-57.9-23.9
				c-15.4-15.5-23.9-36.2-23.9-58.2c0-21.8,8.5-42.3,23.9-57.6C194.8,100.2,215.4,91.7,237.3,91.7 M199.3,154.2
				c-0.2,1.7,0.2,3.2,1.3,4.3c1.1,1.2,2.6,1.8,4.4,1.8h58.2c2.9,0,5.1,0,7.6-0.4l5.8-1l-1.9-5.6c-5.2-15-22.9-22.9-37.7-22.9
				c-11.8,0-31.1,6.8-37.3,22l-0.4,0.9V154.2 M237.3,86.7c-48.1,0-86.9,38.7-86.9,86.5c0,48.5,38.7,87.2,86.9,87.2
				c23.6,0,67-10.1,67-39.4c0-11.1-7.1-18.9-19.2-18.9c-17.5,0-20.5,12.8-46.5,12.8c-17.5,0-31-12.8-34.3-23.2c0-0.3,0-1,0.7-1h92.2
				c13.5,0,24.9-11.1,24.9-24.6v-2.4C317.8,120.1,282.1,86.7,237.3,86.7L237.3,86.7z M205,155.4c-1,0-0.7-0.3-0.7-1
				c3-7.4,15.2-18.9,32.7-18.9c17.2,0,29.6,9.8,33,19.5c-2,0.3-4,0.3-6.7,0.3H205L205,155.4z"/>
		</g>
	</g>
	<g>
		<g>
			<path class="st0" d="M358.5,256.6c-14.7,0-23.1-9.9-23.1-27.1V50.7c0-17.5,8.4-27.5,23.1-27.5c13.8,0,22.1,10.3,22.1,27.5v178.8
				C380.5,246.5,372.3,256.6,358.5,256.6z"/>
		</g>
		<g>
			<path class="st0" d="M358.5,25.7c3.9,0,9.4,1,13.6,5.6c3.9,4.3,5.9,11,5.9,19.3v178.8c0,15.7-7.1,24.6-19.6,24.6
				c-13.3,0-20.6-8.7-20.6-24.6V50.7C337.9,34.6,345.2,25.7,358.5,25.7 M358.5,20.7c-14.5,0-25.6,9.4-25.6,30v178.8
				c0,20.5,11.1,29.6,25.6,29.6c13.5,0,24.6-9.1,24.6-29.6V50.7C383,30.2,371.9,20.7,358.5,20.7L358.5,20.7z"/>
		</g>
	</g>
	<g>
		<g>
			<path class="st0" d="M424.8,256.6c-14.7,0-23.1-9.9-23.1-27.1V50.7c0-17.5,8.4-27.5,23.1-27.5c13.8,0,22.1,10.3,22.1,27.5v178.8
				C446.8,246.5,438.6,256.6,424.8,256.6z"/>
		</g>
		<g>
			<path class="st0" d="M424.8,25.7c3.9,0,9.4,1,13.6,5.6c3.9,4.3,5.9,11,5.9,19.3v178.8c0,15.7-7.1,24.6-19.6,24.6
				c-13.3,0-20.6-8.7-20.6-24.6V50.7C404.2,34.6,411.5,25.7,424.8,25.7 M424.8,20.7c-14.5,0-25.6,9.4-25.6,30v178.8
				c0,20.5,11.1,29.6,25.6,29.6c13.5,0,24.6-9.1,24.6-29.6V50.7C449.3,30.2,438.2,20.7,424.8,20.7L424.8,20.7z"/>
		</g>
	</g>
	<g>
		<g>
			<path class="st0" d="M545.6,257.9c-22.8,0-44.1-8.8-60-24.7s-24.7-37.2-24.7-60c0-22.5,8.8-43.6,24.7-59.4
				c16-15.9,37.3-24.6,60-24.6c46.3,0,84,37.7,84,84c0,22.7-8.7,44.1-24.6,60C589.2,249.2,568.1,257.9,545.6,257.9z M545.6,134.7
				c-21.8,0-38.9,16.9-38.9,38.5c0,22,17.1,39.2,38.9,39.2c21.2,0,38.5-17.6,38.5-39.2C584.1,152,566.8,134.7,545.6,134.7z"/>
		</g>
		<g>
			<path class="st0" d="M545.6,91.7c45,0,81.5,36.6,81.5,81.5c0,22.1-8.5,42.8-23.9,58.3c-15.4,15.4-35.8,23.9-57.6,23.9
				c-22.1,0-42.8-8.5-58.2-24c-15.4-15.4-24-36.1-24-58.2c0-21.8,8.5-42.3,23.9-57.6C502.8,100.2,523.5,91.7,545.6,91.7
				 M545.6,214.9c11,0,21.3-4.3,29-12.1c7.7-7.8,12-18.3,12-29.6c0-22.6-18.4-41-41-41c-11.2,0-21.7,4.3-29.4,12
				c-7.7,7.7-11.9,18-11.9,29C504.2,196.6,522.4,214.9,545.6,214.9 M545.6,86.7c-48.5,0-87.2,38.7-87.2,86.5
				c0,48.5,38.7,87.2,87.2,87.2c47.8,0,86.5-38.7,86.5-87.2C632.1,125.4,593.4,86.7,545.6,86.7L545.6,86.7z M545.6,209.9
				c-20.5,0-36.4-16.2-36.4-36.7c0-19.9,15.8-36,36.4-36c19.9,0,36,16.2,36,36C581.6,193.8,565.5,209.9,545.6,209.9L545.6,209.9z"/>
		</g>
	</g>
</g>
<g>
	<path class="st1" d="M752.5,16.7c0.7,1.7-0.7-2.4,78.8,222.9c0.3,1.3,0.7,2.7,0.7,4.4c0,7.7-6.4,15.5-16.2,15.5
		c-5.7,0-11.1-3.7-13.1-9.4l-16.2-46.5c-0.3-1.3-1.3-2.4-3-2.4h-91.6c-1.7,0-3,0.7-3.4,2.4L672.7,250c-2,5.7-7.4,9.1-13.5,9.4
		c-9.8,0-15.8-7.7-15.8-15.5c0-1.7,0.3-3,0.7-4.4l78.4-222.9c1.7-5.4,6.4-12.1,15.2-12.1S750.2,11.3,752.5,16.7z M700.7,168.2
		c-0.3,0.3-0.3,0.7-0.3,1c0,1,0.7,1.7,1.7,1.7h71c1,0,2.4-0.7,2.4-1.7c0-0.3-0.3-0.7-0.3-1L738.4,61.1c0-0.7-0.3-1-0.7-1
		s-0.3,0.3-0.7,1L700.7,168.2z"/>
	<path class="st1" d="M871.7,108.6c15.2-13.8,35.7-22.2,57.9-22.2c48.5,0,87.2,38.7,87.2,87.2c0,47.8-41.7,86.5-90.2,86.5
		c-22.2,0-39.8-8.4-54.9-22.2l-3,74.4c0,7.4-6.7,13.8-14.5,13.8c-7.1,0-14.1-6.4-14.1-13.8l3-210.8c0-7.4,7.1-13.8,14.1-13.8
		c7.7,0,14.5,6.4,14.5,13.8V108.6z M929.6,115.3c-32.3,0-57.9,25.6-57.9,58.2c0,32.3,25.6,57.9,57.9,57.9
		c32.7,0,58.2-25.6,58.2-57.9C987.8,140.9,962.3,115.3,929.6,115.3z"/>
	<path class="st1" d="M1056.5,108.6c15.2-13.8,35.7-22.2,57.9-22.2c48.5,0,87.2,38.7,87.2,87.2c0,47.8-38.7,86.5-87.2,86.5
		c-22.2,0-42.8-8.4-57.9-22.2v74.4c0,7.4-6.7,13.8-14.5,13.8c-7.1,0-14.1-6.4-14.1-13.8V101.5c0-7.4,7.1-13.8,14.1-13.8
		c7.7,0,14.5,6.4,14.5,13.8V108.6z M1114.4,115.3c-32.3,0-57.9,25.6-57.9,58.2c0,32.3,25.6,57.9,57.9,57.9
		c32.7,0,58.2-25.6,58.2-57.9C1172.6,140.9,1147.1,115.3,1114.4,115.3z"/>
	<path class="st1" d="M1259.1,260.4c-25.6,0-52.2-15.2-52.2-29.3c0-7.4,5.4-13.5,13.5-13.5c12.5,0,19.5,14.8,42.1,14.8
		c17.2,0,24.2-9.1,24.2-17.8c0-8.4-7.4-18.2-25.9-27.3l-20.5-10.1c-23.6-11.4-32-27.6-32-45.1c0-23.2,21.5-44.8,53.9-44.8
		c21.2,0,38.7,10.1,44.8,16.8c4.4,4.7,5.1,8.4,5.1,11.8c0,5.4-5.4,11.8-13.8,11.8c-12.8,0-17.2-12.1-37.4-12.1
		c-15.5,0-21.9,8.4-21.9,16.2c0,8.8,4.7,15.5,21.2,23.9l24.6,12.8c24.6,12.8,31.3,29.3,31.3,46.1
		C1316,238.2,1296.8,260.4,1259.1,260.4z"/>
</g>
</svg>
